<svg aria-hidden="true" style="position: absolute; width: 0; height: 0; overflow: hidden;" version="1.1" xmlns="http://www.w3.org/2000/svg" xmlns:xlink="http://www.w3.org/1999/xlink">
<defs>
<symbol id="icon-angle-small-left-grey-mob" viewBox="0 0 32 32">
<path d="M14.134 16.947c-0.125-0.124-0.224-0.271-0.292-0.434s-0.103-0.337-0.103-0.513 0.035-0.35 0.103-0.513c0.068-0.162 0.167-0.31 0.292-0.434l6.12-6.107c0.125-0.124 0.224-0.271 0.292-0.434s0.103-0.337 0.103-0.513c0-0.176-0.035-0.35-0.103-0.513s-0.167-0.31-0.292-0.434c-0.25-0.248-0.588-0.388-0.94-0.388s-0.69 0.139-0.94 0.388l-6.12 6.12c-0.749 0.75-1.17 1.767-1.17 2.827s0.421 2.077 1.17 2.827l6.12 6.12c0.248 0.246 0.584 0.385 0.933 0.387 0.176 0.001 0.349-0.033 0.512-0.099s0.31-0.164 0.435-0.288c0.125-0.124 0.224-0.271 0.292-0.434s0.103-0.337 0.103-0.513-0.035-0.35-0.103-0.513c-0.068-0.162-0.167-0.31-0.292-0.434l-6.12-6.107z"></path>
</symbol>
<symbol id="icon-angle-small-reight-black-mob" viewBox="0 0 32 32">
<path d="M17.866 16.947c0.125-0.124 0.224-0.272 0.292-0.434s0.103-0.337 0.103-0.513-0.035-0.35-0.103-0.513c-0.068-0.162-0.167-0.31-0.292-0.434l-6.12-6.107c-0.125-0.124-0.224-0.271-0.292-0.434s-0.103-0.337-0.103-0.513c0-0.176 0.035-0.35 0.103-0.513s0.167-0.31 0.292-0.434c0.25-0.248 0.588-0.388 0.94-0.388s0.69 0.139 0.94 0.388l6.12 6.12c0.749 0.75 1.17 1.767 1.17 2.827s-0.421 2.077-1.17 2.827l-6.12 6.12c-0.248 0.246-0.584 0.385-0.933 0.387-0.175 0.001-0.349-0.033-0.512-0.099s-0.31-0.164-0.435-0.288c-0.125-0.124-0.224-0.271-0.292-0.434s-0.103-0.337-0.103-0.513 0.035-0.35 0.103-0.513c0.068-0.162 0.167-0.31 0.292-0.434l6.12-6.107z"></path>
</symbol>
<symbol id="icon-arrow-down-black-mob" viewBox="0 0 32 32">
<path stroke-linejoin="round" stroke-linecap="round" stroke-miterlimit="4" stroke-width="2.6667" d="M8 12l8 8 8-8"></path>
</symbol>
<symbol id="burger-menu-black-mob" viewBox="0 0 32 32">
<path stroke-linejoin="round" stroke-linecap="round" stroke-miterlimit="4" stroke-width="3" d="M4 16h24"></path>
<path stroke-linejoin="round" stroke-linecap="round" stroke-miterlimit="4" stroke-width="3" d="M4 8h24"></path>
<path stroke-linejoin="round" stroke-linecap="round" stroke-miterlimit="4" stroke-width="3" d="M4 24h24"></path>
</symbol>
<symbol id="icon-burger-menu-white-mob" viewBox="0 0 32 32">
<path fill="none" stroke="#fff" style="stroke: var(--color1, #fff)" stroke-linejoin="round" stroke-linecap="round" stroke-miterlimit="4" stroke-width="3" d="M4 16h24"></path>
<path fill="none" stroke="#fff" style="stroke: var(--color1, #fff)" stroke-linejoin="round" stroke-linecap="round" stroke-miterlimit="4" stroke-width="3" d="M4 8h24"></path>
<path fill="none" stroke="#fff" style="stroke: var(--color1, #fff)" stroke-linejoin="round" stroke-linecap="round" stroke-miterlimit="4" stroke-width="3" d="M4 24h24"></path>
</symbol>
<symbol id="icon-calendar-black-mob" viewBox="0 0 32 32">
<path stroke-linejoin="round" stroke-linecap="round" stroke-miterlimit="4" stroke-width="2.6667" d="M25.333 5.333h-18.667c-1.473 0-2.667 1.194-2.667 2.667v18.667c0 1.473 1.194 2.667 2.667 2.667h18.667c1.473 0 2.667-1.194 2.667-2.667v-18.667c0-1.473-1.194-2.667-2.667-2.667z"></path>
<path stroke-linejoin="round" stroke-linecap="round" stroke-miterlimit="4" stroke-width="2.6667" d="M21.333 2.667v5.333"></path>
<path stroke-linejoin="round" stroke-linecap="round" stroke-miterlimit="4" stroke-width="2.6667" d="M10.667 2.667v5.333"></path>
<path stroke-linejoin="round" stroke-linecap="round" stroke-miterlimit="4" stroke-width="2.6667" d="M4 13.333h24"></path>
</symbol>
<symbol id="icon-check-green-mob" viewBox="0 0 32 32">
<path fill="none" stroke="#08aa83" style="stroke: var(--color2, #08aa83)" stroke-linejoin="round" stroke-linecap="round" stroke-miterlimit="4" stroke-width="2.6667" d="M26.667 9.333l-14.667 14.667-6.667-6.667"></path>
</symbol>
<symbol id="icon-chevron-down-black-mob" viewBox="0 0 32 32">
<path stroke-linejoin="round" stroke-linecap="round" stroke-miterlimit="4" stroke-width="2.6667" d="M8 20l8-8 8 8"></path>
</symbol>
<symbol id="icon-cross-small-red-mob" viewBox="0 0 32 32">
<path fill="none" stroke="#ef2447" style="stroke: var(--color3, #ef2447)" stroke-linejoin="round" stroke-linecap="round" stroke-miterlimit="4" stroke-width="2.6667" d="M25.333 6.667l-18.667 18.667M6.667 6.667l18.667 18.667"></path>
</symbol>
<symbol id="icon-delete-yellow-mob" viewBox="0 0 32 32">
<path fill="none" stroke="#f6b83d" style="stroke: var(--color4, #f6b83d)" stroke-linejoin="round" stroke-linecap="round" stroke-miterlimit="4" stroke-width="2.6667" d="M4 8h24"></path>
<path fill="none" stroke="#f6b83d" style="stroke: var(--color4, #f6b83d)" stroke-linejoin="round" stroke-linecap="round" stroke-miterlimit="4" stroke-width="2.6667" d="M25.333 8v18.667c0 0.707-0.281 1.386-0.781 1.886s-1.178 0.781-1.886 0.781h-13.333c-0.707 0-1.386-0.281-1.886-0.781s-0.781-1.178-0.781-1.886v-18.667M10.667 8v-2.667c0-0.707 0.281-1.386 0.781-1.886s1.178-0.781 1.886-0.781h5.333c0.707 0 1.386 0.281 1.886 0.781s0.781 1.178 0.781 1.886v2.667"></path>
<path fill="none" stroke="#f6b83d" style="stroke: var(--color4, #f6b83d)" stroke-linejoin="round" stroke-linecap="round" stroke-miterlimit="4" stroke-width="2.6667" d="M13.333 14.667v8"></path>
<path fill="none" stroke="#f6b83d" style="stroke: var(--color4, #f6b83d)" stroke-linejoin="round" stroke-linecap="round" stroke-miterlimit="4" stroke-width="2.6667" d="M18.667 14.667v8"></path>
</symbol>
<symbol id="icon-eye-off-yellow-mob" viewBox="0 0 32 32">
<path fill="none" stroke="#f6b83d" style="stroke: var(--color4, #f6b83d)" stroke-linejoin="round" stroke-linecap="round" stroke-miterlimit="4" stroke-width="2.6667" d="M23.92 23.92c-2.279 1.737-5.055 2.7-7.92 2.747-9.333 0-14.667-10.667-14.667-10.667 1.659-3.091 3.959-5.791 6.747-7.92M13.2 5.653c0.918-0.215 1.857-0.322 2.8-0.32 9.333 0 14.667 10.667 14.667 10.667-0.809 1.514-1.775 2.94-2.88 4.253M18.827 18.827c-0.366 0.393-0.808 0.708-1.298 0.927s-1.020 0.336-1.557 0.346c-0.537 0.009-1.071-0.089-1.569-0.291s-0.951-0.501-1.33-0.881-0.679-0.832-0.88-1.33c-0.201-0.498-0.3-1.032-0.29-1.569s0.127-1.067 0.346-1.557c0.219-0.491 0.534-0.932 0.927-1.298"></path>
<path fill="none" stroke="#f6b83d" style="stroke: var(--color4, #f6b83d)" stroke-linejoin="round" stroke-linecap="round" stroke-miterlimit="4" stroke-width="2.6667" d="M1.333 1.333l29.333 29.333"></path>
</symbol>
<symbol id="icon-female-around-mob" viewBox="0 0 32 32">
<path fill="#f43f5e" style="fill: var(--color5, #f43f5e)" opacity="0.1" d="M16 0c8.837 0 16 7.163 16 16s-7.163 16-16 16c-8.837 0-16-7.163-16-16s7.163-16 16-16z"></path>
<path fill="none" stroke="#f43f5e" style="stroke: var(--color5, #f43f5e)" stroke-linejoin="round" stroke-linecap="round" stroke-miterlimit="4" stroke-width="1.5" d="M16.001 16.833c2.301 0 4.167-1.865 4.167-4.167s-1.866-4.167-4.167-4.167c-2.301 0-4.167 1.865-4.167 4.167s1.865 4.167 4.167 4.167zM16.001 16.833v6.667M13.501 21h5"></path>
</symbol>
<symbol id="icon-female-around-white-mob" viewBox="0 0 32 32">
<path fill="#f43f5e" style="fill: var(--color5, #f43f5e)" d="M16 0c8.837 0 16 7.163 16 16s-7.163 16-16 16c-8.837 0-16-7.163-16-16s7.163-16 16-16z"></path>
<path fill="none" stroke="#fff" style="stroke: var(--color1, #fff)" stroke-linejoin="round" stroke-linecap="round" stroke-miterlimit="4" stroke-width="1.5" d="M16.001 16.833c2.301 0 4.167-1.865 4.167-4.167s-1.866-4.167-4.167-4.167c-2.301 0-4.167 1.865-4.167 4.167s1.865 4.167 4.167 4.167zM16.001 16.833v6.667M13.501 21h5"></path>
</symbol>
<symbol id="icon-female-pink-mob" viewBox="0 0 32 32">
<path fill="none" stroke="#f43f5e" style="stroke: var(--color5, #f43f5e)" stroke-linejoin="round" stroke-linecap="round" stroke-miterlimit="4" stroke-width="2.4" d="M16.001 17.333c3.682 0 6.667-2.985 6.667-6.667s-2.985-6.667-6.667-6.667c-3.682 0-6.667 2.985-6.667 6.667s2.985 6.667 6.667 6.667zM16.001 17.333v10.667M12.001 24h8"></path>
</symbol>
<symbol id="icon-female-white-mob" viewBox="0 0 32 32">
<path fill="none" stroke="#fff" style="stroke: var(--color1, #fff)" stroke-linejoin="round" stroke-linecap="round" stroke-miterlimit="4" stroke-width="2.4" d="M16.001 17.333c3.682 0 6.667-2.985 6.667-6.667s-2.985-6.667-6.667-6.667c-3.682 0-6.667 2.985-6.667 6.667s2.985 6.667 6.667 6.667zM16.001 17.333v10.667M12.001 24h8"></path>
</symbol>
<symbol id="icon-footprint-yellow-mob" viewBox="0 0 32 32">
<path fill="#f6b83d" style="fill: var(--color4, #f6b83d)" d="M12.5 5c-1.070 0-2.002 0.608-2.594 1.438s-0.906 1.902-0.906 3.062c0 1.16 0.314 2.233 0.906 3.063s1.524 1.437 2.594 1.437c1.070 0 2.002-0.608 2.594-1.438s0.906-1.902 0.906-3.062c0-1.16-0.314-2.233-0.906-3.063s-1.524-1.437-2.594-1.437zM16 9.5c0 1.16 0.314 2.233 0.906 3.063s1.525 1.437 2.594 1.437c1.070 0 2.002-0.608 2.594-1.438s0.906-1.902 0.906-3.062c0-1.16-0.314-2.233-0.906-3.063s-1.524-1.437-2.594-1.437c-1.070 0-2.002 0.608-2.594 1.438s-0.906 1.902-0.906 3.062zM12.5 7c0.312 0 0.656 0.156 0.97 0.594 0.31 0.437 0.53 1.133 0.53 1.906s-0.22 1.47-0.53 1.906c-0.314 0.438-0.658 0.594-0.97 0.594s-0.656-0.156-0.97-0.594c-0.31-0.437-0.53-1.133-0.53-1.906s0.22-1.47 0.53-1.906c0.314-0.438 0.658-0.594 0.97-0.594zM19.5 7c0.312 0 0.656 0.156 0.97 0.594 0.31 0.437 0.53 1.133 0.53 1.906s-0.22 1.47-0.53 1.906c-0.314 0.438-0.658 0.594-0.97 0.594s-0.656-0.156-0.97-0.594c-0.31-0.437-0.53-1.133-0.53-1.906s0.22-1.47 0.53-1.906c0.314-0.438 0.658-0.594 0.97-0.594zM7.5 12c-1.070 0-2.002 0.608-2.594 1.438s-0.906 1.902-0.906 3.062c0 1.16 0.314 2.233 0.906 3.063s1.524 1.437 2.594 1.437c1.070 0 2.002-0.608 2.594-1.438s0.906-1.902 0.906-3.062c0-1.16-0.314-2.233-0.906-3.063s-1.524-1.437-2.594-1.437zM24.5 12c-1.070 0-2.002 0.608-2.594 1.438s-0.906 1.902-0.906 3.062c0 1.16 0.314 2.233 0.906 3.063s1.524 1.437 2.594 1.437c1.070 0 2.002-0.608 2.594-1.438s0.906-1.902 0.906-3.062c0-1.16-0.314-2.233-0.906-3.063s-1.524-1.437-2.594-1.437zM7.5 14c0.312 0 0.656 0.156 0.97 0.594 0.31 0.437 0.53 1.133 0.53 1.906s-0.22 1.47-0.53 1.906c-0.314 0.438-0.658 0.594-0.97 0.594s-0.656-0.156-0.97-0.594c-0.31-0.436-0.53-1.133-0.53-1.906s0.22-1.47 0.53-1.906c0.314-0.438 0.658-0.594 0.97-0.594zM24.5 14c0.312 0 0.656 0.156 0.97 0.594 0.31 0.437 0.53 1.133 0.53 1.906s-0.22 1.47-0.53 1.906c-0.314 0.438-0.658 0.594-0.97 0.594s-0.656-0.156-0.97-0.594c-0.31-0.437-0.53-1.133-0.53-1.906s0.22-1.47 0.53-1.906c0.314-0.438 0.658-0.594 0.97-0.594zM16 16c-1.333 0-2.263 0.865-2.72 1.625-0.454 0.76-0.734 1.392-1 1.656-0.153 0.157-1.118 0.52-2.124 1.033-0.503 0.257-1.010 0.6-1.437 1.125-0.43 0.525-0.72 1.25-0.72 2.063 0 1.92 1.58 3.5 3.5 3.5 0.866 0 1.77-0.28 2.655-0.53 0.889-0.256 1.846-0.472 1.846-0.472s0.957 0.216 1.844 0.47c0.886 0.25 1.79 0.53 2.656 0.53 1.92 0 3.5-1.58 3.5-3.5 0-0.794-0.293-1.52-0.72-2.030-0.425-0.513-0.937-0.83-1.436-1.095-1-0.53-1.983-0.95-2.125-1.094-0.24-0.237-0.51-0.89-0.97-1.654-0.459-0.767-1.409-1.627-2.749-1.627zM16 18c0.66 0 0.733 0.16 1.030 0.656 0.3 0.495 0.524 1.336 1.25 2.063 0.825 0.82 1.867 1 2.626 1.404 0.38 0.202 0.67 0.417 0.844 0.625 0.173 0.207 0.25 0.396 0.25 0.75 0 0.84-0.66 1.5-1.5 1.5-0.29 0-1.224-0.22-2.094-0.47-0.87-0.247-1.59-0.53-2.406-0.53s-1.536 0.283-2.406 0.53c-0.87 0.25-1.804 0.47-2.094 0.47-0.84 0-1.5-0.66-1.5-1.5 0-0.403 0.084-0.61 0.25-0.814 0.166-0.203 0.472-0.404 0.844-0.593 0.744-0.38 1.78-0.53 2.625-1.375 0.733-0.737 0.953-1.605 1.25-2.095 0.292-0.49 0.362-0.625 1.030-0.625l0.001 0.004z"></path>
</symbol>
<symbol id="icon-heart-white-mob" viewBox="0 0 32 32">
<path fill="none" stroke="#fff" style="stroke: var(--color1, #fff)" stroke-linejoin="round" stroke-linecap="round" stroke-miterlimit="4" stroke-width="2.6667" d="M27.784 6.147c-0.681-0.681-1.49-1.222-2.38-1.591s-1.844-0.559-2.807-0.559c-0.963 0-1.917 0.19-2.807 0.559s-1.698 0.909-2.38 1.591l-1.413 1.413-1.413-1.413c-1.376-1.376-3.241-2.148-5.187-2.148s-3.811 0.773-5.187 2.148c-1.376 1.376-2.148 3.241-2.148 5.187s0.773 3.811 2.148 5.187l11.787 11.787 11.787-11.787c0.681-0.681 1.222-1.49 1.591-2.38s0.559-1.844 0.559-2.807c0-0.963-0.19-1.917-0.559-2.807s-0.909-1.699-1.591-2.38z"></path>
</symbol>
<symbol id="icon-heart-yellow-mob" viewBox="0 0 32 32">
<path fill="none" stroke="#f6b83d" style="stroke: var(--color4, #f6b83d)" stroke-linejoin="round" stroke-linecap="round" stroke-miterlimit="4" stroke-width="2.6667" d="M27.784 6.147c-0.681-0.681-1.49-1.222-2.38-1.591s-1.844-0.559-2.807-0.559c-0.963 0-1.917 0.19-2.807 0.559s-1.698 0.909-2.38 1.591l-1.413 1.413-1.413-1.413c-1.376-1.376-3.241-2.148-5.187-2.148s-3.811 0.773-5.187 2.148c-1.376 1.376-2.148 3.241-2.148 5.187s0.773 3.811 2.148 5.187l11.787 11.787 11.787-11.787c0.681-0.681 1.222-1.49 1.591-2.38s0.559-1.844 0.559-2.807c0-0.963-0.19-1.917-0.559-2.807s-0.909-1.699-1.591-2.38z"></path>
</symbol>
<symbol id="icon-logo-1" viewBox="0 0 106 32">
<path fill="#262626" style="fill: var(--color1, #262626)" d="M9.169 25.461c-1.466 0-2.694-0.348-3.687-1.043s-1.739-1.642-2.24-2.838c-0.501-1.206-0.751-2.555-0.751-4.049 0-1.512 0.25-2.866 0.751-4.063s1.234-2.138 2.198-2.824c0.974-0.696 2.175-1.043 3.603-1.043 1.419 0 2.648 0.348 3.687 1.043 1.048 0.686 1.86 1.628 2.435 2.824 0.575 1.187 0.863 2.542 0.863 4.063 0 1.503-0.283 2.852-0.849 4.049s-1.363 2.143-2.393 2.838c-1.030 0.696-2.235 1.043-3.617 1.043zM1.92 31.722v-21.704h2.963v10.546h0.417v11.158h-3.381zM8.654 22.456c0.872 0 1.591-0.218 2.157-0.654s0.983-1.025 1.252-1.767c0.278-0.751 0.417-1.586 0.417-2.504 0-0.909-0.139-1.735-0.417-2.477-0.278-0.751-0.71-1.345-1.294-1.781-0.584-0.445-1.326-0.668-2.226-0.668-0.853 0-1.549 0.209-2.087 0.626-0.538 0.408-0.937 0.983-1.197 1.725-0.25 0.733-0.376 1.591-0.376 2.574 0 0.974 0.125 1.832 0.376 2.574 0.26 0.742 0.663 1.322 1.21 1.739 0.557 0.408 1.285 0.612 2.184 0.612zM24.813 25.461c-1.521 0-2.857-0.329-4.007-0.988s-2.050-1.572-2.699-2.741c-0.64-1.169-0.96-2.514-0.96-4.035 0-1.642 0.315-3.065 0.946-4.271 0.631-1.215 1.507-2.157 2.63-2.824s2.421-1.002 3.896-1.002c1.558 0 2.88 0.366 3.965 1.099 1.095 0.723 1.906 1.748 2.435 3.075s0.728 2.889 0.598 4.689h-3.325v-1.224c-0.009-1.632-0.297-2.824-0.863-3.576s-1.456-1.127-2.671-1.127c-1.373 0-2.393 0.427-3.061 1.28-0.668 0.844-1.002 2.082-1.002 3.715 0 1.521 0.334 2.699 1.002 3.534s1.642 1.252 2.922 1.252c0.826 0 1.535-0.181 2.129-0.543 0.603-0.371 1.067-0.904 1.391-1.6l3.311 1.002c-0.575 1.354-1.465 2.407-2.671 3.158-1.197 0.751-2.518 1.127-3.965 1.127zM19.637 18.463v-2.532h10.337v2.532h-10.337zM42.415 25.043c-0.993 0.185-1.966 0.264-2.922 0.237-0.946-0.018-1.795-0.19-2.546-0.515-0.751-0.334-1.322-0.858-1.711-1.572-0.343-0.649-0.524-1.312-0.543-1.99s-0.028-1.442-0.028-2.296v-13.064h3.339v12.87c0 0.603 0.005 1.132 0.014 1.586 0.019 0.455 0.116 0.825 0.292 1.113 0.334 0.557 0.867 0.867 1.6 0.932s1.567 0.028 2.504-0.111v2.81zM31.938 12.647v-2.63h10.477v2.63h-10.477zM44.811 25.043v-20.452h3.353v20.452h-3.353z"></path>
<path fill="#f6b83d" style="fill: var(--color2, #f6b83d)" d="M63.298 9.762c-1.891-2.233-5.046-2.834-7.416-0.789s-2.704 5.464-0.843 7.883c1.192 1.549 4.245 4.422 6.286 6.287 0.678 0.62 1.017 0.93 1.424 1.054 0.349 0.107 0.748 0.107 1.097 0 0.406-0.124 0.745-0.434 1.424-1.054 2.041-1.865 5.094-4.738 6.286-6.287 1.861-2.419 1.568-5.86-0.842-7.883s-5.524-1.444-7.416 0.789z"></path>
<path fill="#262626" style="fill: var(--color1, #262626)" d="M81.141 25.043l-5.454-15.026h3.353l3.784 10.894 3.77-10.894h3.367l-5.454 15.026h-3.367zM97.634 25.461c-1.521 0-2.857-0.329-4.007-0.988s-2.050-1.572-2.699-2.741c-0.64-1.169-0.96-2.514-0.96-4.035 0-1.642 0.315-3.065 0.946-4.271 0.631-1.215 1.507-2.157 2.63-2.824s2.421-1.002 3.896-1.002c1.558 0 2.88 0.366 3.965 1.099 1.094 0.723 1.906 1.748 2.435 3.075s0.728 2.889 0.598 4.689h-3.325v-1.224c-0.009-1.632-0.297-2.824-0.863-3.576s-1.456-1.127-2.671-1.127c-1.373 0-2.393 0.427-3.061 1.28-0.668 0.844-1.002 2.082-1.002 3.715 0 1.521 0.334 2.699 1.002 3.534s1.642 1.252 2.922 1.252c0.825 0 1.535-0.181 2.129-0.543 0.603-0.371 1.067-0.904 1.391-1.6l3.311 1.002c-0.575 1.354-1.466 2.407-2.671 3.158-1.197 0.751-2.518 1.127-3.965 1.127zM92.458 18.463v-2.532h10.337v2.532h-10.337z"></path>
</symbol>
<symbol id="icon-logo-mob-white-yellow" viewBox="0 0 109 32">
<path fill="#fff" style="fill: var(--color1, #fff)" d="M9.414 25.571c-1.505 0-2.767-0.357-3.786-1.071s-1.786-1.686-2.3-2.914c-0.514-1.238-0.771-2.624-0.771-4.157 0-1.552 0.257-2.943 0.771-4.171s1.267-2.195 2.257-2.9c1-0.714 2.233-1.071 3.7-1.071 1.457 0 2.719 0.357 3.786 1.071 1.076 0.705 1.91 1.671 2.5 2.9 0.59 1.219 0.886 2.61 0.886 4.171 0 1.543-0.29 2.929-0.871 4.157s-1.4 2.2-2.457 2.914c-1.057 0.714-2.295 1.071-3.714 1.071zM1.971 32v-22.286h3.043v10.829h0.429v11.457h-3.471zM8.886 22.486c0.895 0 1.633-0.224 2.214-0.671s1.010-1.052 1.286-1.814c0.286-0.771 0.429-1.629 0.429-2.571 0-0.933-0.143-1.781-0.429-2.543-0.286-0.771-0.729-1.381-1.329-1.829-0.6-0.457-1.362-0.686-2.286-0.686-0.876 0-1.59 0.214-2.143 0.643-0.552 0.419-0.962 1.010-1.229 1.771-0.257 0.752-0.386 1.633-0.386 2.643 0 1 0.129 1.881 0.386 2.643 0.267 0.762 0.681 1.357 1.243 1.786 0.571 0.419 1.319 0.629 2.243 0.629zM25.477 25.571c-1.562 0-2.933-0.338-4.114-1.014s-2.105-1.614-2.771-2.814c-0.657-1.2-0.986-2.581-0.986-4.143 0-1.686 0.324-3.148 0.971-4.386 0.648-1.248 1.548-2.214 2.7-2.9s2.486-1.029 4-1.029c1.6 0 2.957 0.376 4.071 1.129 1.124 0.743 1.957 1.795 2.5 3.157s0.748 2.967 0.614 4.814h-3.414v-1.257c-0.009-1.676-0.305-2.9-0.886-3.671s-1.495-1.157-2.743-1.157c-1.41 0-2.457 0.438-3.143 1.314-0.686 0.867-1.029 2.138-1.029 3.814 0 1.562 0.343 2.771 1.029 3.629s1.686 1.286 3 1.286c0.848 0 1.576-0.186 2.186-0.557 0.619-0.381 1.095-0.929 1.429-1.643l3.4 1.029c-0.59 1.39-1.505 2.471-2.743 3.243-1.229 0.771-2.586 1.157-4.071 1.157zM20.163 18.386v-2.6h10.614v2.6h-10.614zM43.551 25.143c-1.019 0.19-2.019 0.271-3 0.243-0.971-0.019-1.843-0.195-2.614-0.529-0.771-0.343-1.357-0.881-1.757-1.614-0.352-0.667-0.538-1.348-0.557-2.043s-0.029-1.481-0.029-2.357v-13.414h3.429v13.214c0 0.619 0.005 1.162 0.014 1.629 0.019 0.467 0.119 0.848 0.3 1.143 0.343 0.571 0.89 0.89 1.643 0.957s1.609 0.029 2.571-0.114v2.886zM32.794 12.414v-2.7h10.757v2.7h-10.757zM46.011 25.143v-21h3.443v21h-3.443z"></path>
<path fill="#f6b83d" style="fill: var(--color2, #f6b83d)" d="M64.565 9.369c-2.011-2.374-5.363-3.013-7.883-0.839s-2.874 5.809-0.896 8.38c1.267 1.647 4.512 4.701 6.682 6.684 0.721 0.659 1.082 0.988 1.514 1.121 0.371 0.114 0.795 0.114 1.166 0 0.432-0.132 0.793-0.462 1.513-1.121 2.17-1.983 5.415-5.037 6.682-6.684 1.979-2.571 1.667-6.229-0.895-8.38s-5.873-1.535-7.883 0.839z"></path>
<path fill="#fff" style="fill: var(--color1, #fff)" d="M83.314 25.143l-5.6-15.429h3.443l3.886 11.186 3.871-11.186h3.457l-5.6 15.429h-3.457zM100.249 25.571c-1.562 0-2.933-0.338-4.114-1.014s-2.105-1.614-2.771-2.814c-0.657-1.2-0.986-2.581-0.986-4.143 0-1.686 0.324-3.148 0.971-4.386 0.647-1.248 1.547-2.214 2.7-2.9s2.486-1.029 4-1.029c1.6 0 2.957 0.376 4.071 1.129 1.124 0.743 1.957 1.795 2.5 3.157s0.747 2.967 0.614 4.814h-3.414v-1.257c-0.010-1.676-0.305-2.9-0.886-3.671s-1.495-1.157-2.743-1.157c-1.41 0-2.457 0.438-3.143 1.314-0.686 0.867-1.029 2.138-1.029 3.814 0 1.562 0.343 2.771 1.029 3.629s1.686 1.286 3 1.286c0.847 0 1.576-0.186 2.186-0.557 0.619-0.381 1.095-0.929 1.429-1.643l3.4 1.029c-0.59 1.39-1.505 2.471-2.743 3.243-1.229 0.771-2.586 1.157-4.071 1.157zM94.934 18.386v-2.6h10.614v2.6h-10.614z"></path>
</symbol>
<symbol id="icon-logo" viewBox="0 0 32 32">
<path fill="#fff" style="fill: var(--color1, #fff)" d="M2.775 18.863c-0.444 0-0.815-0.105-1.116-0.316s-0.526-0.497-0.678-0.859c-0.152-0.365-0.227-0.773-0.227-1.225 0-0.458 0.076-0.867 0.227-1.229s0.373-0.647 0.665-0.855c0.295-0.211 0.658-0.316 1.091-0.316 0.429 0 0.801 0.105 1.116 0.316 0.317 0.208 0.563 0.493 0.737 0.855 0.174 0.359 0.261 0.769 0.261 1.229 0 0.455-0.086 0.863-0.257 1.225s-0.413 0.648-0.724 0.859c-0.312 0.211-0.676 0.316-1.095 0.316zM0.581 20.758v-6.568h0.897v3.192h0.126v3.377h-1.023zM2.619 17.954c0.264 0 0.481-0.066 0.653-0.198s0.298-0.31 0.379-0.535c0.084-0.227 0.126-0.48 0.126-0.758 0-0.275-0.042-0.525-0.126-0.749-0.084-0.227-0.215-0.407-0.392-0.539-0.177-0.135-0.401-0.202-0.674-0.202-0.258 0-0.469 0.063-0.632 0.189-0.163 0.123-0.284 0.298-0.362 0.522-0.076 0.222-0.114 0.481-0.114 0.779 0 0.295 0.038 0.554 0.114 0.779 0.079 0.225 0.201 0.4 0.366 0.526 0.168 0.123 0.389 0.185 0.661 0.185zM7.509 18.863c-0.46 0-0.865-0.1-1.213-0.299s-0.62-0.476-0.817-0.829c-0.194-0.354-0.291-0.761-0.291-1.221 0-0.497 0.095-0.928 0.286-1.293 0.191-0.368 0.456-0.653 0.796-0.855s0.733-0.303 1.179-0.303c0.472 0 0.872 0.111 1.2 0.333 0.331 0.219 0.577 0.529 0.737 0.931s0.22 0.874 0.181 1.419h-1.006v-0.371c-0.003-0.494-0.090-0.855-0.261-1.082s-0.441-0.341-0.808-0.341c-0.415 0-0.724 0.129-0.926 0.387-0.202 0.255-0.303 0.63-0.303 1.124 0 0.46 0.101 0.817 0.303 1.069s0.497 0.379 0.884 0.379c0.25 0 0.465-0.055 0.644-0.164 0.182-0.112 0.323-0.274 0.421-0.484l1.002 0.303c-0.174 0.41-0.444 0.728-0.808 0.956-0.362 0.227-0.762 0.341-1.2 0.341zM5.943 16.745v-0.766h3.128v0.766h-3.128zM12.836 18.737c-0.3 0.056-0.595 0.080-0.884 0.072-0.286-0.006-0.543-0.058-0.771-0.156-0.227-0.101-0.4-0.26-0.518-0.476-0.104-0.197-0.159-0.397-0.164-0.602s-0.008-0.436-0.008-0.695v-3.954h1.011v3.895c0 0.182 0.001 0.342 0.004 0.48 0.006 0.138 0.035 0.25 0.088 0.337 0.101 0.168 0.262 0.262 0.484 0.282s0.474 0.008 0.758-0.034v0.851zM9.665 14.985v-0.796h3.171v0.796h-3.171zM13.561 18.737v-6.189h1.015v6.189h-1.015z"></path>
<path fill="#fff" style="fill: var(--color1, #fff)" d="M19.156 14.112c-0.572-0.676-1.527-0.858-2.244-0.239s-0.818 1.654-0.255 2.386c0.361 0.469 1.285 1.338 1.902 1.903 0.205 0.188 0.308 0.281 0.431 0.319 0.106 0.032 0.226 0.032 0.332 0 0.123-0.038 0.226-0.131 0.431-0.319 0.618-0.564 1.542-1.434 1.902-1.903 0.563-0.732 0.475-1.773-0.255-2.386s-1.672-0.437-2.244 0.239z"></path>
<path fill="#fff" style="fill: var(--color1, #fff)" d="M24.556 18.737l-1.651-4.547h1.015l1.145 3.297 1.141-3.297h1.019l-1.651 4.547h-1.019zM29.547 18.863c-0.46 0-0.865-0.1-1.213-0.299s-0.62-0.476-0.817-0.829c-0.194-0.354-0.291-0.761-0.291-1.221 0-0.497 0.095-0.928 0.286-1.293 0.191-0.368 0.456-0.653 0.796-0.855s0.733-0.303 1.179-0.303c0.472 0 0.872 0.111 1.2 0.333 0.331 0.219 0.577 0.529 0.737 0.931s0.22 0.874 0.181 1.419h-1.006v-0.371c-0.003-0.494-0.090-0.855-0.261-1.082s-0.441-0.341-0.808-0.341c-0.415 0-0.724 0.129-0.926 0.387-0.202 0.255-0.303 0.63-0.303 1.124 0 0.46 0.101 0.817 0.303 1.069s0.497 0.379 0.884 0.379c0.25 0 0.465-0.055 0.644-0.164 0.182-0.112 0.323-0.274 0.421-0.484l1.002 0.303c-0.174 0.41-0.444 0.728-0.808 0.956-0.362 0.227-0.762 0.341-1.2 0.341zM27.981 16.745v-0.766h3.128v0.766h-3.128z"></path>
</symbol>
<symbol id="icon-male-around-mob" viewBox="0 0 32 32">
<path fill="#54adff" style="fill: var(--color7, #54adff)" opacity="0.1" d="M16 0c8.837 0 16 7.163 16 16s-7.163 16-16 16c-8.837 0-16-7.163-16-16s7.163-16 16-16z"></path>
<path fill="none" stroke="#54adff" style="stroke: var(--color7, #54adff)" stroke-linejoin="round" stroke-linecap="round" stroke-miterlimit="4" stroke-width="1.5" d="M16.001 15.167c-2.301 0-4.167 1.865-4.167 4.167s1.865 4.167 4.167 4.167c2.301 0 4.167-1.866 4.167-4.167s-1.866-4.167-4.167-4.167zM16.001 15.167v-6.667M16.001 8.5l3.333 3.333M16.001 8.5l-3.333 3.333"></path>
</symbol>
<symbol id="icon-male-blue-mob" viewBox="0 0 32 32">
<path fill="none" stroke="#54adff" style="stroke: var(--color7, #54adff)" stroke-linejoin="round" stroke-linecap="round" stroke-miterlimit="4" stroke-width="2.4" d="M16.001 14.667c-3.682 0-6.667 2.985-6.667 6.667s2.985 6.667 6.667 6.667c3.682 0 6.667-2.985 6.667-6.667s-2.985-6.667-6.667-6.667zM16.001 14.667v-10.667M16.001 4l5.333 5.333M16.001 4l-5.333 5.333"></path>
</symbol>
<symbol id="icon-nogender-around-mob" viewBox="0 0 32 32">
<path fill="#fff4df" style="fill: var(--color8, #fff4df)" d="M16 0c8.837 0 16 7.163 16 16s-7.163 16-16 16c-8.837 0-16-7.163-16-16s7.163-16 16-16z"></path>
<path fill="#f6b83d" style="fill: var(--color4, #f6b83d)" d="M13.309 12.454c-0.598-0.234-1.256-0.263-1.873-0.084s-1.157 0.556-1.537 1.074-0.579 1.146-0.565 1.788c0.014 0.642 0.238 1.261 0.64 1.762s0.957 0.855 1.581 1.008c0.623 0.153 1.28 0.096 1.868-0.163s1.074-0.704 1.382-1.267c0.309-0.563 0.423-1.212 0.325-1.847-0.008-0.054-0.006-0.109 0.007-0.162s0.036-0.103 0.069-0.147c0.032-0.044 0.073-0.081 0.12-0.11s0.099-0.047 0.153-0.056c0.054-0.008 0.109-0.006 0.162 0.007s0.103 0.036 0.147 0.069c0.044 0.032 0.082 0.073 0.11 0.12s0.047 0.099 0.056 0.153c0.126 0.816-0.021 1.65-0.419 2.374s-1.022 1.296-1.777 1.628c-0.756 0.332-1.6 0.406-2.401 0.209s-1.516-0.652-2.032-1.296-0.805-1.441-0.823-2.266c-0.017-0.825 0.238-1.633 0.727-2.298s1.183-1.15 1.976-1.38c0.793-0.23 1.639-0.192 2.408 0.108 0.052 0.019 0.099 0.049 0.139 0.087s0.072 0.083 0.095 0.134c0.023 0.050 0.035 0.105 0.036 0.16s-0.008 0.11-0.028 0.161c-0.020 0.051-0.050 0.098-0.088 0.138s-0.084 0.071-0.135 0.093c-0.051 0.022-0.105 0.033-0.16 0.034s-0.11-0.009-0.161-0.030z"></path>
<path fill="#f6b83d" style="fill: var(--color4, #f6b83d)" d="M11.832 22.25v-3.332c0-0.11 0.044-0.216 0.122-0.294s0.184-0.122 0.294-0.122c0.111 0 0.216 0.044 0.294 0.122s0.122 0.184 0.122 0.294v3.332c0 0.11-0.044 0.216-0.122 0.294s-0.184 0.122-0.294 0.122c-0.11 0-0.216-0.044-0.294-0.122s-0.122-0.184-0.122-0.294z"></path>
<path fill="#f6b83d" style="fill: var(--color4, #f6b83d)" d="M10.582 20.168c0-0.11 0.044-0.216 0.122-0.294s0.184-0.122 0.294-0.122h2.499c0.111 0 0.216 0.044 0.294 0.122s0.122 0.184 0.122 0.294c0 0.11-0.044 0.216-0.122 0.294s-0.184 0.122-0.294 0.122h-2.499c-0.11 0-0.216-0.044-0.294-0.122s-0.122-0.184-0.122-0.294zM18.038 12.364c-0.462-0.13-0.948-0.145-1.417-0.042s-0.904 0.319-1.269 0.631-0.647 0.708-0.822 1.155c-0.175 0.447-0.236 0.929-0.18 1.406 0.007 0.055 0.003 0.11-0.012 0.163s-0.040 0.102-0.073 0.146c-0.034 0.043-0.076 0.079-0.124 0.106s-0.101 0.044-0.155 0.050-0.11 0.002-0.162-0.013c-0.053-0.015-0.102-0.040-0.145-0.074s-0.079-0.076-0.105-0.124c-0.027-0.048-0.044-0.101-0.050-0.155-0.097-0.82 0.079-1.649 0.501-2.358s1.066-1.26 1.833-1.566c0.767-0.306 1.613-0.35 2.407-0.126s1.493 0.704 1.986 1.366 0.755 1.467 0.744 2.293c-0.011 0.825-0.295 1.624-0.806 2.272s-1.223 1.109-2.023 1.311-1.645 0.135-2.403-0.192c-0.050-0.022-0.096-0.053-0.134-0.092s-0.068-0.085-0.088-0.136c-0.041-0.103-0.039-0.217 0.004-0.319s0.126-0.181 0.229-0.222c0.103-0.041 0.217-0.039 0.319 0.005 0.366 0.158 0.761 0.239 1.16 0.238s0.794-0.084 1.159-0.243c0.366-0.16 0.695-0.392 0.967-0.684s0.481-0.637 0.615-1.012c0.134-0.376 0.188-0.775 0.161-1.174s-0.136-0.786-0.319-1.141c-0.183-0.354-0.437-0.668-0.746-0.92s-0.667-0.438-1.051-0.547z"></path>
<path fill="#f6b83d" style="fill: var(--color4, #f6b83d)" d="M19.659 13.173c-0.078-0.078-0.122-0.184-0.122-0.294s0.044-0.216 0.122-0.294l3.124-3.124c0.038-0.040 0.084-0.072 0.135-0.093s0.105-0.033 0.161-0.034c0.055-0 0.11 0.010 0.161 0.031s0.098 0.052 0.137 0.091c0.039 0.039 0.070 0.086 0.091 0.137s0.032 0.106 0.031 0.161c-0 0.055-0.012 0.11-0.034 0.161s-0.054 0.097-0.093 0.135l-3.124 3.124c-0.078 0.078-0.184 0.122-0.294 0.122s-0.216-0.044-0.294-0.122z"></path>
<path fill="#f6b83d" style="fill: var(--color4, #f6b83d)" d="M23.046 12.254c-0.055-0.001-0.109-0.012-0.159-0.034s-0.096-0.053-0.134-0.092c-0.038-0.039-0.068-0.085-0.089-0.136s-0.030-0.105-0.030-0.16l0.021-1.655-1.655 0.021c-0.11 0.001-0.217-0.041-0.296-0.118s-0.124-0.182-0.126-0.293c-0.002-0.11 0.041-0.217 0.118-0.296s0.183-0.124 0.293-0.126l2.51-0.032-0.032 2.51c-0.001 0.055-0.012 0.109-0.034 0.159s-0.053 0.096-0.092 0.134-0.085 0.068-0.136 0.088c-0.051 0.020-0.105 0.030-0.16 0.030z"></path>
</symbol>
<symbol id="icon-nogender-yellow-mob" viewBox="0 0 32 32">
<path fill="#f6b83d" style="fill: var(--color4, #f6b83d)" d="M11.694 10.327c-0.957-0.374-2.010-0.421-2.997-0.135s-1.851 0.89-2.459 1.718c-0.608 0.828-0.926 1.833-0.905 2.86s0.382 2.018 1.024 2.82c0.642 0.802 1.532 1.368 2.529 1.613s2.048 0.153 2.988-0.261 1.718-1.126 2.212-2.026c0.494-0.901 0.677-1.939 0.521-2.954-0.013-0.086-0.009-0.175 0.011-0.26s0.058-0.165 0.11-0.236c0.052-0.071 0.117-0.13 0.192-0.176s0.158-0.076 0.244-0.089c0.086-0.013 0.175-0.009 0.26 0.011s0.165 0.058 0.236 0.11c0.071 0.052 0.13 0.117 0.176 0.192s0.076 0.158 0.089 0.244c0.201 1.305-0.034 2.64-0.67 3.798s-1.635 2.073-2.844 2.605c-1.209 0.532-2.56 0.649-3.842 0.335s-2.426-1.044-3.252-2.074-1.289-2.305-1.316-3.625c-0.028-1.32 0.381-2.613 1.163-3.677s1.893-1.841 3.162-2.209c1.268-0.368 2.623-0.307 3.853 0.173 0.083 0.031 0.158 0.078 0.223 0.139s0.116 0.133 0.152 0.214c0.036 0.081 0.056 0.168 0.058 0.256s-0.013 0.176-0.045 0.258c-0.032 0.082-0.080 0.157-0.142 0.221s-0.135 0.114-0.216 0.149c-0.081 0.035-0.168 0.053-0.257 0.054s-0.176-0.015-0.258-0.048z"></path>
<path fill="#f6b83d" style="fill: var(--color4, #f6b83d)" d="M9.331 26v-5.331c0-0.177 0.070-0.346 0.195-0.471s0.294-0.195 0.471-0.195c0.177 0 0.346 0.070 0.471 0.195s0.195 0.294 0.195 0.471v5.331c0 0.177-0.070 0.346-0.195 0.471s-0.294 0.195-0.471 0.195c-0.177 0-0.346-0.070-0.471-0.195s-0.195-0.295-0.195-0.471z"></path>
<path fill="#f6b83d" style="fill: var(--color4, #f6b83d)" d="M7.331 22.668c0-0.177 0.070-0.346 0.195-0.471s0.294-0.195 0.471-0.195h3.998c0.177 0 0.346 0.070 0.471 0.195s0.195 0.294 0.195 0.471c0 0.177-0.070 0.346-0.195 0.471s-0.294 0.195-0.471 0.195h-3.998c-0.177 0-0.346-0.070-0.471-0.195s-0.195-0.295-0.195-0.471zM19.261 10.182c-0.739-0.208-1.517-0.232-2.267-0.067s-1.447 0.511-2.030 1.010-1.035 1.133-1.315 1.848c-0.28 0.715-0.378 1.487-0.288 2.249 0.011 0.087 0.004 0.176-0.019 0.26s-0.063 0.164-0.118 0.233c-0.054 0.069-0.121 0.127-0.198 0.17s-0.161 0.071-0.248 0.081c-0.087 0.010-0.176 0.003-0.26-0.021s-0.163-0.064-0.232-0.119c-0.069-0.055-0.126-0.122-0.169-0.199s-0.070-0.161-0.080-0.248c-0.156-1.311 0.126-2.638 0.801-3.773s1.706-2.016 2.933-2.505c1.227-0.489 2.581-0.56 3.851-0.201s2.388 1.127 3.178 2.185 1.208 2.348 1.19 3.669c-0.018 1.32-0.472 2.598-1.29 3.635s-1.956 1.774-3.236 2.098-2.632 0.216-3.845-0.307c-0.080-0.035-0.153-0.085-0.214-0.148s-0.109-0.137-0.141-0.218c-0.065-0.164-0.063-0.348 0.007-0.51s0.201-0.29 0.366-0.356c0.164-0.065 0.348-0.063 0.51 0.007 0.586 0.252 1.218 0.382 1.857 0.381s1.27-0.134 1.855-0.389c0.585-0.255 1.112-0.628 1.547-1.095s0.77-1.018 0.984-1.62c0.214-0.602 0.301-1.241 0.258-1.878s-0.217-1.258-0.51-1.825c-0.293-0.567-0.7-1.068-1.194-1.472s-1.067-0.701-1.681-0.875z"></path>
<path fill="#f6b83d" style="fill: var(--color4, #f6b83d)" d="M21.855 11.477c-0.125-0.125-0.195-0.294-0.195-0.471s0.070-0.346 0.195-0.471l4.998-4.998c0.061-0.064 0.135-0.114 0.216-0.149s0.169-0.053 0.257-0.054c0.088-0.001 0.176 0.016 0.258 0.050s0.156 0.083 0.219 0.146c0.063 0.063 0.112 0.137 0.145 0.219s0.050 0.17 0.050 0.258c-0.001 0.088-0.019 0.176-0.054 0.257s-0.086 0.155-0.149 0.216l-4.998 4.998c-0.125 0.125-0.294 0.195-0.471 0.195s-0.346-0.070-0.471-0.195z"></path>
<path fill="#f6b83d" style="fill: var(--color4, #f6b83d)" d="M27.273 10.007c-0.088-0.001-0.174-0.020-0.254-0.054s-0.153-0.085-0.214-0.147c-0.061-0.063-0.109-0.137-0.142-0.218s-0.048-0.168-0.047-0.256l0.033-2.648-2.648 0.033c-0.177 0.002-0.347-0.066-0.474-0.189s-0.199-0.292-0.201-0.469c-0.002-0.177 0.066-0.347 0.189-0.474s0.292-0.199 0.469-0.201l4.016-0.051-0.051 4.016c-0.001 0.088-0.020 0.174-0.054 0.254s-0.084 0.153-0.147 0.214-0.137 0.109-0.218 0.142c-0.081 0.032-0.168 0.049-0.256 0.047z"></path>
</symbol>
<symbol id="icon-pen-yellow-mob" viewBox="0 0 32 32">
<path fill="none" stroke="#f6b83d" style="stroke: var(--color4, #f6b83d)" stroke-linejoin="round" stroke-linecap="round" stroke-miterlimit="4" stroke-width="2.6667" d="M22.667 4c0.35-0.35 0.766-0.628 1.223-0.817s0.948-0.287 1.443-0.287c0.495 0 0.986 0.098 1.443 0.287s0.873 0.467 1.223 0.817c0.35 0.35 0.628 0.766 0.817 1.223s0.287 0.948 0.287 1.443c0 0.495-0.098 0.986-0.287 1.443s-0.467 0.873-0.817 1.223l-18 18-7.333 2 2-7.333 18-18z"></path>
</symbol>
<symbol id="icon-search-black-mob" viewBox="0 0 32 32">
<path stroke-linejoin="round" stroke-linecap="round" stroke-miterlimit="4" stroke-width="3.5556" d="M14.667 25.333c5.891 0 10.667-4.776 10.667-10.667s-4.776-10.667-10.667-10.667c-5.891 0-10.667 4.776-10.667 10.667s4.776 10.667 10.667 10.667z"></path>
<path stroke-linejoin="round" stroke-linecap="round" stroke-miterlimit="4" stroke-width="3.5556" d="M28.001 28l-5.8-5.8"></path>
</symbol>
<symbol id="icon-star-yellow-mob" viewBox="0 0 32 32">
<path fill="#ffc531" style="fill: var(--color9, #ffc531); stroke: var(--color9, #ffc531)" stroke="#ffc531" stroke-linejoin="miter" stroke-linecap="butt" stroke-miterlimit="4" stroke-width="2.4" d="M12.4 9.394l3.6-6.822 3.6 6.822c0.318 0.603 0.899 1.025 1.571 1.141l7.601 1.315-5.376 5.532c-0.475 0.489-0.697 1.171-0.6 1.846l1.098 7.635-6.922-3.404c-0.612-0.301-1.329-0.301-1.941 0l-6.922 3.404 1.098-7.635c0.097-0.675-0.125-1.357-0.6-1.846l-5.376-5.532 7.601-1.315c0.672-0.116 1.252-0.538 1.571-1.141zM29.035 11.579v0zM7.767 27.031c0 0 0 0 0 0h-0z"></path>
</symbol>
<symbol id="icon-upload-cloud-yellow-mob" viewBox="0 0 32 32">
<path fill="none" stroke="#f6b83d" style="stroke: var(--color4, #f6b83d)" stroke-linejoin="round" stroke-linecap="round" stroke-miterlimit="4" stroke-width="2" d="M16 16v12"></path>
<path fill="none" stroke="#f6b83d" style="stroke: var(--color4, #f6b83d)" stroke-linejoin="round" stroke-linecap="round" stroke-miterlimit="4" stroke-width="2" d="M27.189 24.52c1.3-0.709 2.328-1.831 2.92-3.189s0.715-2.874 0.35-4.309-1.198-2.708-2.367-3.618c-1.169-0.909-2.608-1.404-4.089-1.405h-1.68c-0.403-1.561-1.156-3.010-2.2-4.239s-2.353-2.204-3.829-2.854-3.079-0.956-4.691-0.897c-1.611 0.059-3.188 0.483-4.612 1.24s-2.658 1.826-3.609 3.128c-0.951 1.302-1.595 2.803-1.882 4.389s-0.212 3.218 0.222 4.77c0.433 1.553 1.213 2.988 2.281 4.196"></path>
<path fill="none" stroke="#f6b83d" style="stroke: var(--color4, #f6b83d)" stroke-linejoin="round" stroke-linecap="round" stroke-miterlimit="4" stroke-width="2" d="M21.335 21.333l-5.333-5.333-5.333 5.333"></path>
</symbol>
<symbol id="icon-user-big-yellow-mob" viewBox="0 0 32 32">
<path fill="#f6b83d" style="fill: var(--color4, #f6b83d); stroke: var(--color4, #f6b83d)" stroke="#f6b83d" stroke-linejoin="round" stroke-linecap="round" stroke-miterlimit="4" stroke-width="1.6" d="M15.999 20c-4.227 0-7.986 2.041-10.379 5.208-0.515 0.682-0.773 1.022-0.764 1.483 0.006 0.356 0.23 0.805 0.51 1.025 0.362 0.284 0.865 0.284 1.869 0.284h17.527c1.004 0 1.507 0 1.869-0.284 0.28-0.22 0.503-0.669 0.51-1.025 0.008-0.461-0.249-0.801-0.764-1.483-2.393-3.167-6.152-5.208-10.379-5.208z"></path>
<path fill="#f6b83d" style="fill: var(--color4, #f6b83d); stroke: var(--color4, #f6b83d)" stroke="#f6b83d" stroke-linejoin="round" stroke-linecap="round" stroke-miterlimit="4" stroke-width="1.6" d="M16 16c3.314 0 6-2.686 6-6s-2.686-6-6-6-6 2.686-6 6c0 3.314 2.686 6 6 6z"></path>
</symbol>
<symbol id="icon-user-white-mob" viewBox="0 0 32 32">
<path fill="#fff" style="fill: var(--color1, #fff); stroke: var(--color1, #fff)" stroke="#fff" stroke-linejoin="round" stroke-linecap="round" stroke-miterlimit="4" stroke-width="3.5556" d="M16.001 20c-4.227 0-7.986 2.041-10.379 5.208-0.515 0.682-0.773 1.022-0.764 1.483 0.007 0.356 0.23 0.805 0.51 1.025 0.362 0.284 0.865 0.284 1.869 0.284h17.527c1.004 0 1.507 0 1.869-0.284 0.28-0.22 0.503-0.669 0.51-1.025 0.009-0.461-0.249-0.801-0.764-1.483-2.393-3.167-6.152-5.208-10.379-5.208z"></path>
<path fill="#fff" style="fill: var(--color1, #fff); stroke: var(--color1, #fff)" stroke="#fff" stroke-linejoin="round" stroke-linecap="round" stroke-miterlimit="4" stroke-width="3.5556" d="M16 16c3.314 0 6-2.686 6-6s-2.686-6-6-6c-3.314 0-6 2.686-6 6s2.686 6 6 6z"></path>
</symbol>
<symbol id="icon-user-yellow-mob" viewBox="0 0 32 32">
<path fill="#f6b83d" style="fill: var(--color4, #f6b83d); stroke: var(--color4, #f6b83d)" stroke="#f6b83d" stroke-linejoin="round" stroke-linecap="round" stroke-miterlimit="4" stroke-width="3.2" d="M15.999 20c-4.227 0-7.986 2.041-10.379 5.208-0.515 0.682-0.773 1.022-0.764 1.483 0.006 0.356 0.23 0.805 0.51 1.024 0.362 0.284 0.865 0.284 1.869 0.284h17.527c1.004 0 1.507 0 1.869-0.284 0.28-0.22 0.504-0.669 0.51-1.024 0.008-0.461-0.249-0.801-0.764-1.483-2.393-3.167-6.152-5.208-10.379-5.208z"></path>
<path fill="#f6b83d" style="fill: var(--color4, #f6b83d); stroke: var(--color4, #f6b83d)" stroke="#f6b83d" stroke-linejoin="round" stroke-linecap="round" stroke-miterlimit="4" stroke-width="3.2" d="M16 16c3.314 0 6-2.686 6-6s-2.686-6-6-6c-3.314 0-6 2.686-6 6s2.686 6 6 6z"></path>
</symbol>
<symbol id="icon-x-black-mob" viewBox="0 0 32 32">
<path stroke-linejoin="round" stroke-linecap="round" stroke-miterlimit="4" stroke-width="3" d="M24 8l-16 16"></path>
<path stroke-linejoin="round" stroke-linecap="round" stroke-miterlimit="4" stroke-width="3" d="M8 8l16 16"></path>
</symbol>
<symbol id="icon-x-white-mob" viewBox="0 0 32 32">
<path fill="none" stroke="#fff" style="stroke: var(--color1, #fff)" stroke-linejoin="round" stroke-linecap="round" stroke-miterlimit="4" stroke-width="3" d="M24 8l-16 16"></path>
<path fill="none" stroke="#fff" style="stroke: var(--color1, #fff)" stroke-linejoin="round" stroke-linecap="round" stroke-miterlimit="4" stroke-width="3" d="M8 8l16 16"></path>
</symbol>
</defs>
</svg>
