<svg aria-hidden="true" style="position: absolute; width: 0; height: 0; overflow: hidden;" version="1.1" xmlns="http://www.w3.org/2000/svg" xmlns:xlink="http://www.w3.org/1999/xlink">
<defs>
<symbol id="icon-angle-small-left-grey" viewBox="0 0 32 32">
<path d="M14.134 16.947c-0.125-0.124-0.224-0.271-0.292-0.434s-0.103-0.337-0.103-0.513 0.035-0.35 0.103-0.513c0.068-0.162 0.167-0.31 0.292-0.434l6.12-6.107c0.125-0.124 0.224-0.271 0.292-0.434s0.103-0.337 0.103-0.513-0.035-0.35-0.103-0.513c-0.068-0.162-0.167-0.31-0.292-0.434-0.25-0.248-0.588-0.388-0.94-0.388s-0.69 0.139-0.94 0.388l-6.12 6.12c-0.749 0.75-1.17 1.767-1.17 2.827s0.421 2.077 1.17 2.827l6.12 6.12c0.248 0.246 0.584 0.385 0.933 0.387 0.175 0.001 0.349-0.033 0.512-0.099s0.31-0.164 0.435-0.288c0.125-0.124 0.224-0.271 0.292-0.434s0.103-0.337 0.103-0.513-0.035-0.35-0.103-0.513c-0.068-0.162-0.167-0.31-0.292-0.434l-6.12-6.107z"></path>
</symbol>
<symbol id="icon-angle-small-right-black" viewBox="0 0 32 32">
<path d="M17.866 16.947c0.125-0.124 0.224-0.271 0.292-0.434s0.103-0.337 0.103-0.513c0-0.176-0.035-0.35-0.103-0.513s-0.167-0.31-0.292-0.434l-6.12-6.107c-0.125-0.124-0.224-0.271-0.292-0.434s-0.103-0.337-0.103-0.513c0-0.176 0.035-0.35 0.103-0.513s0.167-0.31 0.292-0.434c0.25-0.248 0.588-0.388 0.94-0.388s0.69 0.139 0.94 0.388l6.12 6.12c0.749 0.75 1.17 1.767 1.17 2.827s-0.421 2.077-1.17 2.827l-6.12 6.12c-0.248 0.246-0.584 0.385-0.933 0.387-0.175 0.001-0.349-0.033-0.512-0.099s-0.31-0.164-0.435-0.288c-0.125-0.124-0.224-0.271-0.292-0.434s-0.103-0.337-0.103-0.513c0-0.176 0.035-0.35 0.103-0.513s0.167-0.31 0.292-0.434l6.12-6.107z"></path>
</symbol>
<symbol id="icon-calendar" viewBox="0 0 32 32">
<path stroke-linejoin="round" stroke-linecap="round" stroke-miterlimit="4" stroke-width="2.88" d="M25.333 5.333h-18.667c-1.473 0-2.667 1.194-2.667 2.667v18.667c0 1.473 1.194 2.667 2.667 2.667h18.667c1.473 0 2.667-1.194 2.667-2.667v-18.667c0-1.473-1.194-2.667-2.667-2.667z"></path>
<path stroke-linejoin="round" stroke-linecap="round" stroke-miterlimit="4" stroke-width="2.88" d="M21.333 2.667v5.333"></path>
<path stroke-linejoin="round" stroke-linecap="round" stroke-miterlimit="4" stroke-width="2.88" d="M10.667 2.667v5.333"></path>
<path stroke-linejoin="round" stroke-linecap="round" stroke-miterlimit="4" stroke-width="2.88" d="M4 13.333h24"></path>
</symbol>
<symbol id="icon-check-mark-green" viewBox="0 0 32 32">
<path fill="none" stroke="#08aa83" style="stroke: var(--color1, #08aa83)" stroke-linejoin="round" stroke-linecap="round" stroke-miterlimit="4" stroke-width="2.1818" d="M26.667 9.333l-14.667 14.667-6.667-6.667"></path>
</symbol>
<symbol id="icon-chevron-down-black" viewBox="0 0 32 32">
<path stroke-linejoin="round" stroke-linecap="round" stroke-miterlimit="4" stroke-width="3.5556" d="M8 12l8 8 8-8"></path>
</symbol>
<symbol id="icon-cross-small-x-black" viewBox="0 0 32 32">
<path stroke-linejoin="round" stroke-linecap="round" stroke-miterlimit="4" stroke-width="3.5556" d="M25.333 6.667l-18.667 18.667M6.667 6.667l18.667 18.667"></path>
</symbol>
<symbol id="icon-dogs-paw" viewBox="0 0 32 32">
<path fill="#f6b83d" style="fill: var(--color2, #f6b83d)" d="M11.471 1.765c-1.385 0-2.591 0.787-3.357 1.861s-1.172 2.461-1.172 3.963c0 1.501 0.406 2.89 1.172 3.964s1.972 1.86 3.357 1.86 2.591-0.787 3.357-1.861c0.766-1.074 1.173-2.461 1.173-3.963s-0.406-2.89-1.173-3.964c-0.766-1.074-1.972-1.86-3.357-1.86zM16 7.588c0 1.501 0.406 2.89 1.173 3.964s1.973 1.86 3.357 1.86c1.385 0 2.591-0.787 3.357-1.861s1.173-2.461 1.173-3.963-0.406-2.89-1.173-3.964c-0.766-1.074-1.972-1.86-3.357-1.86s-2.591 0.787-3.357 1.861c-0.766 1.074-1.173 2.461-1.173 3.963zM11.471 4.353c0.404 0 0.849 0.202 1.255 0.769 0.401 0.566 0.686 1.466 0.686 2.467s-0.285 1.902-0.686 2.467c-0.406 0.567-0.852 0.769-1.255 0.769s-0.849-0.202-1.255-0.769c-0.401-0.566-0.686-1.466-0.686-2.467s0.285-1.902 0.686-2.467c0.406-0.567 0.852-0.769 1.255-0.769zM20.529 4.353c0.404 0 0.849 0.202 1.255 0.769 0.401 0.566 0.686 1.466 0.686 2.467s-0.285 1.902-0.686 2.467c-0.406 0.567-0.851 0.769-1.255 0.769s-0.849-0.202-1.255-0.769c-0.401-0.566-0.686-1.466-0.686-2.467s0.285-1.902 0.686-2.467c0.406-0.567 0.851-0.769 1.255-0.769zM5 10.824c-1.385 0-2.591 0.787-3.357 1.861s-1.172 2.461-1.172 3.963 0.406 2.89 1.172 3.964c0.766 1.074 1.972 1.86 3.357 1.86s2.591-0.787 3.357-1.861c0.766-1.074 1.172-2.461 1.172-3.963s-0.406-2.89-1.172-3.964c-0.766-1.074-1.972-1.86-3.357-1.86zM27 10.824c-1.385 0-2.591 0.787-3.357 1.861s-1.173 2.461-1.173 3.963 0.406 2.89 1.173 3.964c0.766 1.074 1.972 1.86 3.357 1.86s2.591-0.787 3.357-1.861c0.766-1.074 1.173-2.461 1.173-3.963s-0.406-2.89-1.173-3.964c-0.766-1.074-1.972-1.86-3.357-1.86zM5 13.412c0.404 0 0.849 0.202 1.255 0.769 0.401 0.565 0.686 1.466 0.686 2.467s-0.285 1.902-0.686 2.467c-0.406 0.567-0.852 0.769-1.255 0.769s-0.849-0.202-1.255-0.769c-0.401-0.564-0.686-1.466-0.686-2.467s0.285-1.902 0.686-2.467c0.406-0.567 0.852-0.769 1.255-0.769zM27 13.412c0.404 0 0.849 0.202 1.255 0.769 0.401 0.565 0.686 1.466 0.686 2.467s-0.285 1.902-0.686 2.467c-0.406 0.567-0.851 0.769-1.255 0.769s-0.849-0.202-1.255-0.769c-0.401-0.566-0.686-1.466-0.686-2.467s0.285-1.902 0.686-2.467c0.406-0.567 0.851-0.769 1.255-0.769zM16 16c-1.725 0-2.929 1.119-3.52 2.103-0.588 0.984-0.95 1.801-1.294 2.143-0.198 0.203-1.447 0.673-2.749 1.337-0.651 0.333-1.307 0.776-1.86 1.456-0.556 0.679-0.932 1.618-0.932 2.67 0 2.485 2.045 4.529 4.529 4.529 1.121 0 2.291-0.362 3.436-0.686 1.15-0.331 2.389-0.611 2.389-0.611s1.238 0.28 2.386 0.608c1.147 0.323 2.316 0.686 3.437 0.686 2.485 0 4.529-2.045 4.529-4.529 0-1.027-0.379-1.967-0.932-2.627-0.55-0.664-1.213-1.074-1.858-1.417-1.294-0.686-2.566-1.229-2.75-1.416-0.311-0.307-0.66-1.152-1.255-2.141-0.594-0.993-1.823-2.105-3.558-2.105zM16 18.588c0.854 0 0.949 0.207 1.333 0.849 0.388 0.641 0.678 1.729 1.618 2.67 1.068 1.061 2.416 1.294 3.398 1.817 0.492 0.261 0.867 0.54 1.092 0.809 0.224 0.268 0.324 0.512 0.324 0.971 0 1.087-0.854 1.941-1.941 1.941-0.375 0-1.584-0.285-2.71-0.608-1.126-0.32-2.058-0.686-3.114-0.686s-1.988 0.366-3.114 0.686c-1.126 0.324-2.335 0.608-2.71 0.608-1.087 0-1.941-0.854-1.941-1.941 0-0.522 0.109-0.789 0.324-1.053 0.215-0.263 0.611-0.523 1.092-0.767 0.963-0.492 2.304-0.686 3.397-1.779 0.949-0.954 1.233-2.077 1.618-2.711 0.378-0.634 0.468-0.809 1.333-0.809l0.001 0.005z"></path>
</symbol>
<symbol id="icon-edit-pen-yellow" viewBox="0 0 32 32">
<path fill="none" stroke="#f6b83d" style="stroke: var(--color2, #f6b83d)" stroke-linejoin="round" stroke-linecap="round" stroke-miterlimit="4" stroke-width="2.6667" d="M22.667 4c0.35-0.35 0.766-0.628 1.223-0.817s0.948-0.287 1.443-0.287c0.495 0 0.986 0.098 1.443 0.287s0.873 0.467 1.223 0.817c0.35 0.35 0.628 0.766 0.817 1.224s0.287 0.948 0.287 1.443c0 0.495-0.098 0.986-0.287 1.443s-0.467 0.873-0.817 1.223l-18 18-7.333 2 2-7.333 18-18z"></path>
</symbol>
<symbol id="icon-eye-off-yellow" viewBox="0 0 32 32">
<path fill="none" stroke="#f6b83d" style="stroke: var(--color2, #f6b83d)" stroke-linejoin="round" stroke-linecap="round" stroke-miterlimit="4" stroke-width="2.9091" d="M23.922 23.92c-2.279 1.737-5.055 2.7-7.92 2.747-9.333 0-14.667-10.667-14.667-10.667 1.659-3.091 3.959-5.791 6.747-7.92M13.202 5.653c0.918-0.215 1.857-0.322 2.8-0.32 9.333 0 14.667 10.667 14.667 10.667-0.809 1.514-1.775 2.94-2.88 4.253M18.828 18.827c-0.366 0.393-0.808 0.708-1.298 0.927s-1.020 0.336-1.557 0.346c-0.537 0.009-1.071-0.089-1.569-0.291s-0.951-0.5-1.33-0.88c-0.38-0.38-0.679-0.832-0.88-1.33s-0.3-1.032-0.29-1.569c0.009-0.537 0.127-1.067 0.346-1.557s0.534-0.932 0.927-1.298"></path>
<path fill="none" stroke="#f6b83d" style="stroke: var(--color2, #f6b83d)" stroke-linejoin="round" stroke-linecap="round" stroke-miterlimit="4" stroke-width="2.9091" d="M1.335 1.333l29.333 29.333"></path>
</symbol>
<symbol id="icon-eye-on-yellow" viewBox="0 0 32 32">
<path fill="none" stroke="#f6b83d" style="stroke: var(--color2, #f6b83d)" stroke-linejoin="round" stroke-linecap="round" stroke-miterlimit="4" stroke-width="2.9091" d="M1.332 16c0 0 5.333-10.667 14.667-10.667s14.667 10.667 14.667 10.667-5.333 10.667-14.667 10.667c-9.333 0-14.667-10.667-14.667-10.667z"></path>
<path fill="none" stroke="#f6b83d" style="stroke: var(--color2, #f6b83d)" stroke-linejoin="round" stroke-linecap="round" stroke-miterlimit="4" stroke-width="2.9091" d="M16 20c2.209 0 4-1.791 4-4s-1.791-4-4-4c-2.209 0-4 1.791-4 4s1.791 4 4 4z"></path>
</symbol>
<symbol id="icon-female-pink" viewBox="0 0 32 32">
<path fill="none" stroke="#f43f5e" style="stroke: var(--color3, #f43f5e)" stroke-linejoin="round" stroke-linecap="round" stroke-miterlimit="4" stroke-width="2" d="M16 17.333c3.682 0 6.667-2.985 6.667-6.667s-2.985-6.667-6.667-6.667c-3.682 0-6.667 2.985-6.667 6.667s2.985 6.667 6.667 6.667zM16 17.333v10.667M12 24h8"></path>
</symbol>
<symbol id="icon-female-white" viewBox="0 0 32 32">
<path fill="none" stroke="#fff" style="stroke: var(--color4, #fff)" stroke-linejoin="round" stroke-linecap="round" stroke-miterlimit="4" stroke-width="2" d="M16 17.333c3.682 0 6.667-2.985 6.667-6.667s-2.985-6.667-6.667-6.667c-3.682 0-6.667 2.985-6.667 6.667s2.985 6.667 6.667 6.667zM16 17.333v10.667M12 24h8"></path>
</symbol>
<symbol id="icon-healthicons-white" viewBox="0 0 32 32">
<path fill="#fff" style="fill: var(--color4, #fff)" d="M11.694 10.327c-0.957-0.374-2.010-0.421-2.997-0.135s-1.851 0.89-2.459 1.718c-0.608 0.828-0.926 1.833-0.905 2.86s0.382 2.018 1.024 2.82 1.532 1.369 2.529 1.613c0.998 0.245 2.048 0.153 2.988-0.261s1.718-1.126 2.212-2.026c0.494-0.901 0.677-1.939 0.52-2.954-0.013-0.087-0.009-0.175 0.011-0.26s0.058-0.165 0.11-0.236c0.052-0.071 0.117-0.13 0.192-0.176s0.158-0.076 0.244-0.089 0.175-0.009 0.26 0.011c0.085 0.021 0.165 0.058 0.236 0.11s0.13 0.117 0.176 0.192c0.045 0.075 0.076 0.158 0.089 0.244 0.201 1.305-0.034 2.64-0.67 3.798s-1.635 2.073-2.844 2.605c-1.209 0.531-2.559 0.649-3.842 0.335s-2.426-1.044-3.252-2.074c-0.826-1.031-1.289-2.305-1.316-3.625s0.381-2.613 1.163-3.677 1.893-1.841 3.162-2.209c1.268-0.368 2.623-0.307 3.853 0.173 0.083 0.031 0.158 0.078 0.223 0.139s0.116 0.133 0.152 0.214c0.036 0.081 0.056 0.168 0.058 0.256s-0.013 0.176-0.045 0.258c-0.032 0.082-0.080 0.157-0.142 0.221s-0.135 0.114-0.216 0.149c-0.081 0.035-0.168 0.053-0.257 0.054s-0.176-0.015-0.258-0.048z"></path>
<path fill="#fff" style="fill: var(--color4, #fff)" d="M9.331 26v-5.331c0-0.177 0.070-0.346 0.195-0.471s0.294-0.195 0.471-0.195c0.177 0 0.346 0.070 0.471 0.195s0.195 0.295 0.195 0.471v5.331c0 0.177-0.070 0.346-0.195 0.471s-0.294 0.195-0.471 0.195c-0.177 0-0.346-0.070-0.471-0.195s-0.195-0.294-0.195-0.471z"></path>
<path fill="#fff" style="fill: var(--color4, #fff)" d="M7.332 22.668c0-0.177 0.070-0.346 0.195-0.471s0.294-0.195 0.471-0.195h3.998c0.177 0 0.346 0.070 0.471 0.195s0.195 0.295 0.195 0.471c0 0.177-0.070 0.346-0.195 0.471s-0.294 0.195-0.471 0.195h-3.998c-0.177 0-0.346-0.070-0.471-0.195s-0.195-0.294-0.195-0.471zM19.262 10.182c-0.739-0.208-1.517-0.232-2.267-0.067s-1.447 0.511-2.030 1.010-1.035 1.133-1.315 1.848c-0.28 0.715-0.379 1.487-0.288 2.249 0.011 0.087 0.004 0.175-0.019 0.26s-0.063 0.164-0.118 0.233c-0.054 0.069-0.121 0.127-0.198 0.17s-0.161 0.071-0.248 0.081c-0.087 0.010-0.176 0.003-0.26-0.020s-0.163-0.064-0.232-0.119-0.126-0.122-0.169-0.199c-0.043-0.077-0.070-0.161-0.080-0.249-0.156-1.311 0.126-2.638 0.801-3.773s1.706-2.016 2.933-2.505c1.227-0.489 2.58-0.56 3.851-0.201s2.388 1.127 3.178 2.185c0.79 1.059 1.208 2.348 1.19 3.669s-0.471 2.598-1.29 3.635-1.956 1.774-3.236 2.098c-1.28 0.324-2.632 0.216-3.845-0.307-0.080-0.035-0.153-0.085-0.214-0.147s-0.109-0.137-0.141-0.218c-0.065-0.164-0.063-0.348 0.007-0.51s0.201-0.29 0.366-0.356c0.164-0.065 0.348-0.063 0.51 0.007 0.586 0.253 1.218 0.382 1.857 0.381s1.27-0.134 1.855-0.389c0.585-0.255 1.112-0.628 1.547-1.095s0.77-1.018 0.983-1.62c0.214-0.602 0.301-1.241 0.258-1.878s-0.217-1.258-0.51-1.825-0.7-1.068-1.194-1.472c-0.495-0.404-1.067-0.701-1.681-0.875z"></path>
<path fill="#fff" style="fill: var(--color4, #fff)" d="M21.855 11.477c-0.125-0.125-0.195-0.294-0.195-0.471s0.070-0.346 0.195-0.471l4.998-4.998c0.061-0.064 0.135-0.114 0.216-0.149s0.169-0.053 0.257-0.054c0.088-0.001 0.176 0.016 0.258 0.050s0.156 0.083 0.219 0.146c0.063 0.063 0.112 0.137 0.146 0.219s0.050 0.17 0.050 0.258c-0.001 0.088-0.019 0.176-0.054 0.257s-0.086 0.155-0.149 0.216l-4.998 4.998c-0.125 0.125-0.295 0.195-0.471 0.195s-0.346-0.070-0.471-0.195z"></path>
<path fill="#fff" style="fill: var(--color4, #fff)" d="M27.273 10.007c-0.088-0.001-0.174-0.020-0.254-0.054s-0.153-0.085-0.214-0.147c-0.061-0.063-0.109-0.137-0.142-0.218s-0.049-0.168-0.047-0.256l0.033-2.648-2.648 0.033c-0.177 0.002-0.347-0.066-0.474-0.189s-0.199-0.292-0.201-0.469 0.066-0.347 0.189-0.474c0.123-0.127 0.292-0.199 0.469-0.201l4.016-0.051-0.051 4.016c-0.001 0.088-0.019 0.174-0.054 0.254s-0.085 0.153-0.147 0.214c-0.063 0.061-0.137 0.109-0.218 0.142s-0.168 0.049-0.256 0.047z"></path>
</symbol>
<symbol id="icon-healthicons-yellow" viewBox="0 0 32 32">
<path fill="#f6b83d" style="fill: var(--color2, #f6b83d)" d="M11.694 10.327c-0.957-0.374-2.010-0.421-2.997-0.135s-1.851 0.89-2.459 1.718c-0.608 0.828-0.926 1.833-0.905 2.86s0.382 2.018 1.024 2.82 1.532 1.369 2.529 1.613c0.998 0.245 2.048 0.153 2.988-0.261s1.718-1.126 2.212-2.026c0.494-0.901 0.677-1.939 0.52-2.954-0.013-0.087-0.009-0.175 0.011-0.26s0.058-0.165 0.11-0.236c0.052-0.071 0.117-0.13 0.192-0.176s0.158-0.076 0.244-0.089 0.175-0.009 0.26 0.011c0.085 0.021 0.165 0.058 0.236 0.11s0.13 0.117 0.176 0.192c0.045 0.075 0.076 0.158 0.089 0.244 0.201 1.305-0.034 2.64-0.67 3.798s-1.635 2.073-2.844 2.605c-1.209 0.531-2.559 0.649-3.842 0.335s-2.426-1.044-3.252-2.074c-0.826-1.031-1.289-2.305-1.316-3.625s0.381-2.613 1.163-3.677 1.893-1.841 3.162-2.209c1.268-0.368 2.623-0.307 3.853 0.173 0.083 0.031 0.158 0.078 0.223 0.139s0.116 0.133 0.152 0.214c0.036 0.081 0.056 0.168 0.058 0.256s-0.013 0.176-0.045 0.258c-0.032 0.082-0.080 0.157-0.142 0.221s-0.135 0.114-0.216 0.149c-0.081 0.035-0.168 0.053-0.257 0.054s-0.176-0.015-0.258-0.048z"></path>
<path fill="#f6b83d" style="fill: var(--color2, #f6b83d)" d="M9.331 26v-5.331c0-0.177 0.070-0.346 0.195-0.471s0.294-0.195 0.471-0.195c0.177 0 0.346 0.070 0.471 0.195s0.195 0.295 0.195 0.471v5.331c0 0.177-0.070 0.346-0.195 0.471s-0.294 0.195-0.471 0.195c-0.177 0-0.346-0.070-0.471-0.195s-0.195-0.294-0.195-0.471z"></path>
<path fill="#f6b83d" style="fill: var(--color2, #f6b83d)" d="M7.332 22.668c0-0.177 0.070-0.346 0.195-0.471s0.294-0.195 0.471-0.195h3.998c0.177 0 0.346 0.070 0.471 0.195s0.195 0.295 0.195 0.471c0 0.177-0.070 0.346-0.195 0.471s-0.294 0.195-0.471 0.195h-3.998c-0.177 0-0.346-0.070-0.471-0.195s-0.195-0.294-0.195-0.471zM19.262 10.182c-0.739-0.209-1.517-0.232-2.267-0.067s-1.447 0.511-2.030 1.010-1.035 1.133-1.315 1.848c-0.28 0.715-0.379 1.487-0.288 2.249 0.011 0.087 0.004 0.176-0.019 0.26s-0.063 0.164-0.118 0.233c-0.054 0.069-0.121 0.127-0.198 0.17s-0.161 0.071-0.248 0.081c-0.087 0.010-0.176 0.003-0.26-0.021s-0.163-0.064-0.232-0.119-0.126-0.122-0.169-0.199c-0.043-0.077-0.070-0.161-0.080-0.249-0.156-1.311 0.126-2.638 0.801-3.773s1.706-2.016 2.933-2.505c1.227-0.489 2.58-0.56 3.851-0.201s2.388 1.127 3.178 2.185c0.79 1.059 1.208 2.348 1.19 3.669s-0.471 2.598-1.29 3.635-1.956 1.774-3.236 2.098c-1.28 0.324-2.632 0.216-3.845-0.307-0.080-0.035-0.153-0.085-0.214-0.147s-0.109-0.137-0.141-0.218c-0.065-0.164-0.063-0.348 0.007-0.51s0.201-0.29 0.366-0.356c0.164-0.065 0.348-0.063 0.51 0.007 0.586 0.253 1.218 0.382 1.857 0.381s1.27-0.134 1.855-0.389c0.585-0.255 1.112-0.628 1.547-1.095s0.77-1.018 0.983-1.62c0.214-0.602 0.301-1.241 0.258-1.878s-0.217-1.258-0.51-1.825-0.7-1.068-1.194-1.472c-0.495-0.404-1.067-0.701-1.681-0.875z"></path>
<path fill="#f6b83d" style="fill: var(--color2, #f6b83d)" d="M21.855 11.477c-0.125-0.125-0.195-0.294-0.195-0.471s0.070-0.346 0.195-0.471l4.998-4.998c0.061-0.064 0.135-0.114 0.216-0.149s0.169-0.053 0.257-0.054c0.088-0.001 0.176 0.016 0.258 0.050s0.156 0.083 0.219 0.146c0.063 0.063 0.112 0.137 0.146 0.219s0.050 0.17 0.050 0.258c-0.001 0.088-0.019 0.176-0.054 0.257s-0.086 0.155-0.149 0.216l-4.998 4.998c-0.125 0.125-0.295 0.195-0.471 0.195s-0.346-0.070-0.471-0.195z"></path>
<path fill="#f6b83d" style="fill: var(--color2, #f6b83d)" d="M27.273 10.007c-0.088-0.001-0.174-0.020-0.254-0.054s-0.153-0.085-0.214-0.147c-0.061-0.063-0.109-0.137-0.142-0.218s-0.049-0.168-0.047-0.256l0.033-2.648-2.648 0.033c-0.177 0.002-0.347-0.066-0.474-0.189s-0.199-0.292-0.201-0.469 0.066-0.347 0.189-0.474c0.123-0.127 0.292-0.199 0.469-0.201l4.016-0.051-0.051 4.016c-0.001 0.088-0.019 0.174-0.054 0.254s-0.085 0.153-0.147 0.214c-0.063 0.061-0.137 0.109-0.218 0.142s-0.168 0.049-0.256 0.047z"></path>
</symbol>
<symbol id="icon-heart-white" viewBox="0 0 32 32">
<path fill="none" stroke="#fff" style="stroke: var(--color4, #fff)" stroke-linejoin="round" stroke-linecap="round" stroke-miterlimit="4" stroke-width="2.5263" d="M27.166 6.665c-0.645-0.645-1.411-1.157-2.254-1.507s-1.747-0.529-2.659-0.529c-0.913 0-1.816 0.18-2.66 0.529s-1.609 0.861-2.254 1.507l-1.339 1.339-1.339-1.339c-1.303-1.303-3.071-2.035-4.914-2.035s-3.611 0.732-4.914 2.035c-1.303 1.303-2.035 3.071-2.035 4.914s0.732 3.611 2.035 4.914l11.166 11.166 11.166-11.166c0.645-0.645 1.157-1.411 1.507-2.254s0.529-1.747 0.529-2.659-0.18-1.816-0.529-2.659c-0.349-0.843-0.861-1.609-1.507-2.254z"></path>
</symbol>
<symbol id="icon-heart-yellow" viewBox="0 0 32 32">
<path fill="none" stroke="#f6b83d" style="stroke: var(--color2, #f6b83d)" stroke-linejoin="round" stroke-linecap="round" stroke-miterlimit="4" stroke-width="2.6667" d="M27.788 6.147c-0.681-0.681-1.49-1.222-2.38-1.591s-1.844-0.559-2.807-0.559c-0.963 0-1.917 0.19-2.807 0.559s-1.699 0.909-2.38 1.591l-1.413 1.413-1.413-1.413c-1.376-1.376-3.241-2.148-5.187-2.148s-3.811 0.773-5.187 2.148c-1.376 1.376-2.148 3.241-2.148 5.187s0.773 3.811 2.148 5.187l11.787 11.787 11.787-11.787c0.681-0.681 1.222-1.49 1.591-2.38s0.558-1.844 0.558-2.807-0.19-1.917-0.558-2.807c-0.369-0.89-0.909-1.699-1.591-2.38z"></path>
</symbol>
<symbol id="icon-logo-desktop-tablet" viewBox="0 0 32 32">
<path fill="#262626" style="fill: var(--color5, #262626)" d="M2.812 18.871c-0.449 0-0.826-0.107-1.131-0.32s-0.533-0.503-0.687-0.87c-0.154-0.37-0.23-0.784-0.23-1.242 0-0.464 0.077-0.879 0.23-1.246s0.378-0.656 0.674-0.866c0.299-0.213 0.667-0.32 1.105-0.32 0.435 0 0.812 0.107 1.131 0.32 0.321 0.21 0.57 0.499 0.747 0.866 0.176 0.364 0.265 0.779 0.265 1.246 0 0.461-0.087 0.875-0.26 1.242s-0.418 0.657-0.734 0.87c-0.316 0.213-0.686 0.32-1.109 0.32zM0.589 20.791v-6.656h0.909v3.234h0.128v3.422h-1.037zM2.654 17.949c0.267 0 0.488-0.067 0.661-0.201s0.301-0.314 0.384-0.542c0.085-0.23 0.128-0.486 0.128-0.768 0-0.279-0.043-0.532-0.128-0.759-0.085-0.23-0.218-0.412-0.397-0.546-0.179-0.137-0.407-0.205-0.683-0.205-0.262 0-0.475 0.064-0.64 0.192-0.165 0.125-0.287 0.302-0.367 0.529-0.077 0.225-0.115 0.488-0.115 0.789 0 0.299 0.038 0.562 0.115 0.789 0.080 0.228 0.203 0.405 0.371 0.533 0.171 0.125 0.394 0.188 0.67 0.188zM7.609 18.871c-0.466 0-0.876-0.101-1.229-0.303s-0.629-0.482-0.828-0.841c-0.196-0.358-0.294-0.771-0.294-1.237 0-0.503 0.097-0.94 0.29-1.31 0.193-0.373 0.462-0.661 0.806-0.866s0.742-0.307 1.195-0.307c0.478 0 0.883 0.112 1.216 0.337 0.336 0.222 0.585 0.536 0.747 0.943s0.223 0.886 0.183 1.438h-1.020v-0.375c-0.003-0.501-0.091-0.866-0.265-1.097s-0.447-0.346-0.819-0.346c-0.421 0-0.734 0.131-0.939 0.393-0.205 0.259-0.307 0.639-0.307 1.139 0 0.466 0.102 0.828 0.307 1.084s0.503 0.384 0.896 0.384c0.253 0 0.471-0.055 0.653-0.166 0.185-0.114 0.327-0.277 0.427-0.491l1.015 0.307c-0.176 0.415-0.449 0.738-0.819 0.969-0.367 0.23-0.772 0.346-1.216 0.346zM6.022 16.725v-0.777h3.17v0.777h-3.17zM13.007 18.743c-0.304 0.057-0.603 0.081-0.896 0.073-0.29-0.006-0.55-0.058-0.781-0.158-0.23-0.102-0.405-0.263-0.525-0.482-0.105-0.199-0.161-0.402-0.166-0.61s-0.009-0.442-0.009-0.704v-4.006h1.024v3.947c0 0.185 0.001 0.347 0.004 0.486 0.006 0.139 0.036 0.253 0.090 0.341 0.102 0.171 0.266 0.266 0.491 0.286s0.481 0.009 0.768-0.034v0.862zM9.794 14.941v-0.806h3.213v0.806h-3.213zM13.742 18.743v-6.272h1.028v6.272h-1.028z"></path>
<path fill="#f6b83d" style="fill: var(--color2, #f6b83d)" d="M19.046 14.304c-0.561-0.662-1.495-0.84-2.198-0.234s-0.801 1.619-0.25 2.336c0.353 0.459 1.258 1.311 1.863 1.863 0.201 0.184 0.302 0.276 0.422 0.312 0.104 0.032 0.222 0.032 0.325 0 0.12-0.037 0.221-0.129 0.422-0.312 0.605-0.553 1.51-1.404 1.863-1.863 0.552-0.717 0.465-1.737-0.25-2.336s-1.637-0.428-2.198 0.234z"></path>
<path fill="#262626" style="fill: var(--color5, #262626)" d="M24.396 18.743l-1.673-4.608h1.028l1.161 3.341 1.156-3.341h1.033l-1.673 4.608h-1.033zM29.453 18.871c-0.466 0-0.876-0.101-1.229-0.303s-0.629-0.482-0.828-0.841c-0.196-0.358-0.294-0.771-0.294-1.237 0-0.503 0.097-0.94 0.29-1.31 0.193-0.373 0.462-0.661 0.806-0.866s0.742-0.307 1.195-0.307c0.478 0 0.883 0.112 1.216 0.337 0.336 0.222 0.585 0.536 0.747 0.943s0.223 0.886 0.183 1.438h-1.020v-0.375c-0.003-0.501-0.091-0.866-0.265-1.097s-0.447-0.346-0.819-0.346c-0.421 0-0.734 0.131-0.939 0.393-0.205 0.259-0.307 0.639-0.307 1.139 0 0.466 0.102 0.828 0.307 1.084s0.503 0.384 0.896 0.384c0.253 0 0.471-0.055 0.653-0.166 0.185-0.114 0.327-0.277 0.427-0.491l1.016 0.307c-0.176 0.415-0.45 0.738-0.819 0.969-0.367 0.23-0.772 0.346-1.216 0.346zM27.866 16.725v-0.777h3.17v0.777h-3.17z"></path>
</symbol>
<symbol id="icon-logo-desktop-tablet-white" viewBox="0 0 32 32">
<path fill="#fff" style="fill: var(--color4, #fff)" d="M2.832 18.844c-0.454 0-0.833-0.106-1.137-0.317s-0.534-0.499-0.689-0.862c-0.152-0.363-0.228-0.773-0.228-1.23s0.076-0.866 0.228-1.23c0.152-0.363 0.376-0.651 0.672-0.862s0.661-0.317 1.095-0.317c0.437 0 0.817 0.104 1.141 0.313s0.575 0.495 0.752 0.858c0.18 0.361 0.271 0.773 0.271 1.238 0 0.456-0.089 0.866-0.266 1.23-0.175 0.363-0.42 0.651-0.735 0.862s-0.683 0.317-1.103 0.317zM0.583 20.746v-6.593h1.014v3.128h0.144v3.466h-1.158zM2.646 17.821c0.248 0 0.451-0.062 0.609-0.186s0.275-0.29 0.351-0.499c0.076-0.211 0.114-0.445 0.114-0.702 0-0.254-0.039-0.485-0.118-0.693-0.079-0.211-0.201-0.379-0.368-0.503-0.163-0.127-0.373-0.19-0.63-0.19-0.24 0-0.434 0.058-0.583 0.173-0.147 0.116-0.254 0.278-0.321 0.486s-0.101 0.451-0.101 0.727c0 0.276 0.034 0.518 0.101 0.727s0.177 0.37 0.33 0.486c0.155 0.116 0.361 0.173 0.617 0.173zM7.65 18.844c-0.468 0-0.88-0.1-1.238-0.3-0.355-0.203-0.634-0.48-0.837-0.833-0.2-0.355-0.3-0.761-0.3-1.217 0-0.499 0.099-0.933 0.296-1.302s0.469-0.655 0.816-0.858c0.347-0.206 0.745-0.309 1.196-0.309 0.479 0 0.886 0.113 1.221 0.338s0.583 0.542 0.744 0.951c0.161 0.409 0.217 0.889 0.169 1.441h-1.137v-0.423c0-0.465-0.075-0.799-0.224-1.002-0.147-0.206-0.387-0.309-0.723-0.309-0.392 0-0.68 0.12-0.866 0.359-0.183 0.237-0.275 0.587-0.275 1.052 0 0.425 0.092 0.755 0.275 0.989 0.186 0.231 0.458 0.347 0.816 0.347 0.225 0 0.418-0.049 0.579-0.148s0.283-0.241 0.368-0.427l1.15 0.33c-0.172 0.417-0.444 0.741-0.816 0.972-0.369 0.231-0.773 0.347-1.213 0.347zM6.137 16.756v-0.854h3.026v0.854h-3.026zM13.072 18.717c-0.316 0.059-0.626 0.085-0.93 0.076-0.302-0.006-0.572-0.058-0.811-0.156-0.237-0.101-0.417-0.263-0.541-0.486-0.113-0.209-0.172-0.42-0.178-0.634-0.006-0.217-0.008-0.462-0.008-0.735v-3.897h1.15v3.829c0 0.177 0.001 0.338 0.004 0.482 0.006 0.141 0.035 0.254 0.089 0.338 0.101 0.161 0.263 0.248 0.486 0.262s0.469 0.003 0.74-0.034v0.955zM9.826 15.040v-0.888h3.246v0.888h-3.246zM13.835 18.717v-6.213h1.15v6.213h-1.15z"></path>
<path fill="#fff" style="fill: var(--color4, #fff)" d="M19.168 14.32c-0.555-0.656-1.481-0.832-2.177-0.232s-0.794 1.604-0.247 2.314c0.35 0.455 1.246 1.298 1.845 1.846 0.199 0.182 0.299 0.273 0.418 0.309 0.103 0.031 0.22 0.031 0.322 0 0.119-0.037 0.219-0.128 0.418-0.309 0.599-0.548 1.495-1.391 1.845-1.846 0.546-0.71 0.46-1.72-0.247-2.314s-1.622-0.424-2.177 0.232z"></path>
<path fill="#fff" style="fill: var(--color4, #fff)" d="M24.467 18.717l-1.657-4.565h1.019l1.15 3.309 1.145-3.309h1.023l-1.657 4.565h-1.023zM29.477 18.844c-0.462 0-0.868-0.1-1.217-0.3s-0.623-0.478-0.82-0.833c-0.194-0.355-0.292-0.764-0.292-1.226 0-0.499 0.096-0.931 0.287-1.297 0.192-0.369 0.458-0.655 0.799-0.858s0.735-0.304 1.183-0.304c0.473 0 0.875 0.111 1.205 0.334 0.332 0.22 0.579 0.531 0.74 0.934s0.221 0.878 0.182 1.424h-1.010v-0.372c-0.003-0.496-0.090-0.858-0.262-1.086s-0.442-0.342-0.812-0.342c-0.417 0-0.727 0.13-0.93 0.389-0.203 0.256-0.304 0.633-0.304 1.128 0 0.462 0.101 0.82 0.304 1.073s0.499 0.38 0.888 0.38c0.251 0 0.466-0.055 0.647-0.165 0.183-0.113 0.324-0.275 0.423-0.486l1.006 0.304c-0.175 0.411-0.445 0.731-0.811 0.959-0.363 0.228-0.765 0.342-1.205 0.342zM27.905 16.718v-0.769h3.14v0.769h-3.14z"></path>
</symbol>
<symbol id="icon-logo-mob" viewBox="0 0 32 32">
<path fill="#262626" style="fill: var(--color5, #262626)" d="M2.775 18.863c-0.444 0-0.815-0.105-1.116-0.316s-0.526-0.497-0.678-0.859c-0.152-0.365-0.227-0.773-0.227-1.225 0-0.458 0.076-0.867 0.227-1.229s0.373-0.647 0.665-0.855c0.295-0.211 0.658-0.316 1.091-0.316 0.429 0 0.801 0.105 1.116 0.316 0.317 0.208 0.563 0.493 0.737 0.855 0.174 0.359 0.261 0.769 0.261 1.229 0 0.455-0.086 0.863-0.257 1.225s-0.413 0.648-0.724 0.859c-0.312 0.211-0.676 0.316-1.095 0.316zM0.581 20.758v-6.568h0.897v3.192h0.126v3.377h-1.023zM2.619 17.954c0.264 0 0.481-0.066 0.653-0.198s0.298-0.31 0.379-0.535c0.084-0.227 0.126-0.48 0.126-0.758 0-0.275-0.042-0.525-0.126-0.749-0.084-0.227-0.215-0.407-0.392-0.539-0.177-0.135-0.401-0.202-0.674-0.202-0.258 0-0.469 0.063-0.632 0.189-0.163 0.123-0.284 0.298-0.362 0.522-0.076 0.222-0.114 0.481-0.114 0.779 0 0.295 0.038 0.554 0.114 0.779 0.079 0.225 0.201 0.4 0.366 0.526 0.168 0.123 0.389 0.185 0.661 0.185zM7.509 18.863c-0.46 0-0.865-0.1-1.213-0.299s-0.62-0.476-0.817-0.829c-0.194-0.354-0.291-0.761-0.291-1.221 0-0.497 0.095-0.928 0.286-1.293 0.191-0.368 0.456-0.653 0.796-0.855s0.733-0.303 1.179-0.303c0.472 0 0.872 0.111 1.2 0.333 0.331 0.219 0.577 0.529 0.737 0.931s0.22 0.874 0.181 1.419h-1.006v-0.371c-0.003-0.494-0.090-0.855-0.261-1.082s-0.441-0.341-0.808-0.341c-0.415 0-0.724 0.129-0.926 0.387-0.202 0.255-0.303 0.63-0.303 1.124 0 0.46 0.101 0.817 0.303 1.069s0.497 0.379 0.884 0.379c0.25 0 0.465-0.055 0.644-0.164 0.182-0.112 0.323-0.274 0.421-0.484l1.002 0.303c-0.174 0.41-0.444 0.728-0.808 0.956-0.362 0.227-0.762 0.341-1.2 0.341zM5.943 16.745v-0.766h3.128v0.766h-3.128zM12.836 18.737c-0.3 0.056-0.595 0.080-0.884 0.072-0.286-0.006-0.543-0.058-0.771-0.156-0.227-0.101-0.4-0.26-0.518-0.476-0.104-0.197-0.159-0.397-0.164-0.602s-0.008-0.436-0.008-0.695v-3.954h1.011v3.895c0 0.182 0.001 0.342 0.004 0.48 0.006 0.138 0.035 0.25 0.088 0.337 0.101 0.168 0.262 0.262 0.484 0.282s0.474 0.008 0.758-0.034v0.851zM9.665 14.985v-0.796h3.171v0.796h-3.171zM13.561 18.737v-6.189h1.015v6.189h-1.015z"></path>
<path fill="#f6b83d" style="fill: var(--color2, #f6b83d)" d="M19.156 14.112c-0.572-0.676-1.527-0.858-2.244-0.239s-0.818 1.654-0.255 2.386c0.361 0.469 1.285 1.338 1.902 1.903 0.205 0.188 0.308 0.281 0.431 0.319 0.106 0.032 0.226 0.032 0.332 0 0.123-0.038 0.226-0.131 0.431-0.319 0.618-0.564 1.542-1.434 1.902-1.903 0.563-0.732 0.475-1.773-0.255-2.386s-1.672-0.437-2.244 0.239z"></path>
<path fill="#262626" style="fill: var(--color5, #262626)" d="M24.556 18.737l-1.651-4.547h1.015l1.145 3.297 1.141-3.297h1.019l-1.651 4.547h-1.019zM29.547 18.863c-0.46 0-0.865-0.1-1.213-0.299s-0.62-0.476-0.817-0.829c-0.194-0.354-0.291-0.761-0.291-1.221 0-0.497 0.095-0.928 0.286-1.293 0.191-0.368 0.456-0.653 0.796-0.855s0.733-0.303 1.179-0.303c0.472 0 0.872 0.111 1.2 0.333 0.331 0.219 0.577 0.529 0.737 0.931s0.22 0.874 0.181 1.419h-1.006v-0.371c-0.003-0.494-0.090-0.855-0.261-1.082s-0.441-0.341-0.808-0.341c-0.415 0-0.724 0.129-0.926 0.387-0.202 0.255-0.303 0.63-0.303 1.124 0 0.46 0.101 0.817 0.303 1.069s0.497 0.379 0.884 0.379c0.25 0 0.465-0.055 0.644-0.164 0.182-0.112 0.323-0.274 0.421-0.484l1.002 0.303c-0.174 0.41-0.444 0.728-0.808 0.956-0.362 0.227-0.762 0.341-1.2 0.341zM27.981 16.745v-0.766h3.128v0.766h-3.128z"></path>
</symbol>
<symbol id="icon-logo-white-mob-main-page" viewBox="0 0 106 32">
<path fill="#fff" style="fill: var(--color1, #fff)" d="M9.169 25.461c-1.466 0-2.694-0.348-3.687-1.043s-1.739-1.642-2.24-2.838c-0.501-1.206-0.751-2.555-0.751-4.049 0-1.512 0.25-2.866 0.751-4.063s1.234-2.138 2.198-2.824c0.974-0.696 2.175-1.043 3.603-1.043 1.419 0 2.648 0.348 3.687 1.043 1.048 0.686 1.86 1.628 2.435 2.824 0.575 1.187 0.863 2.542 0.863 4.063 0 1.503-0.283 2.852-0.849 4.049s-1.363 2.143-2.393 2.838c-1.030 0.696-2.235 1.043-3.617 1.043zM1.92 31.722v-21.704h2.963v10.546h0.417v11.158h-3.381zM8.654 22.456c0.872 0 1.591-0.218 2.157-0.654s0.983-1.025 1.252-1.767c0.278-0.751 0.417-1.586 0.417-2.504 0-0.909-0.139-1.735-0.417-2.477-0.278-0.751-0.71-1.345-1.294-1.781-0.584-0.445-1.326-0.668-2.226-0.668-0.853 0-1.549 0.209-2.087 0.626-0.538 0.408-0.937 0.983-1.197 1.725-0.25 0.733-0.376 1.591-0.376 2.574 0 0.974 0.125 1.832 0.376 2.574 0.26 0.742 0.663 1.322 1.21 1.739 0.557 0.408 1.285 0.612 2.184 0.612zM24.813 25.461c-1.521 0-2.857-0.329-4.007-0.988s-2.050-1.572-2.699-2.741c-0.64-1.169-0.96-2.514-0.96-4.035 0-1.642 0.315-3.065 0.946-4.271 0.631-1.215 1.507-2.157 2.63-2.824s2.421-1.002 3.896-1.002c1.558 0 2.88 0.366 3.965 1.099 1.095 0.723 1.906 1.748 2.435 3.075s0.728 2.889 0.598 4.689h-3.325v-1.224c-0.009-1.632-0.297-2.824-0.863-3.576s-1.456-1.127-2.671-1.127c-1.373 0-2.393 0.427-3.061 1.28-0.668 0.844-1.002 2.082-1.002 3.715 0 1.521 0.334 2.699 1.002 3.534s1.642 1.252 2.922 1.252c0.826 0 1.535-0.181 2.129-0.543 0.603-0.371 1.067-0.904 1.391-1.6l3.311 1.002c-0.575 1.354-1.465 2.407-2.671 3.158-1.197 0.751-2.518 1.127-3.965 1.127zM19.637 18.463v-2.532h10.337v2.532h-10.337zM42.415 25.043c-0.993 0.185-1.966 0.264-2.922 0.237-0.946-0.018-1.795-0.19-2.546-0.515-0.751-0.334-1.322-0.858-1.711-1.572-0.343-0.649-0.524-1.312-0.543-1.99s-0.028-1.442-0.028-2.296v-13.064h3.339v12.87c0 0.603 0.005 1.132 0.014 1.586 0.019 0.455 0.116 0.825 0.292 1.113 0.334 0.557 0.867 0.867 1.6 0.932s1.567 0.028 2.504-0.111v2.81zM31.938 12.647v-2.63h10.477v2.63h-10.477zM44.811 25.043v-20.452h3.353v20.452h-3.353z"></path>
<path fill="#fff" style="fill: var(--color1, #fff)" d="M63.297 9.762c-1.892-2.233-5.046-2.834-7.416-0.789s-2.704 5.464-0.842 7.883c1.192 1.549 4.245 4.422 6.286 6.287 0.678 0.62 1.017 0.93 1.424 1.054 0.349 0.107 0.748 0.107 1.097 0 0.406-0.124 0.745-0.434 1.424-1.054 2.041-1.865 5.094-4.738 6.286-6.287 1.861-2.419 1.568-5.86-0.842-7.883s-5.524-1.444-7.416 0.789z"></path>
<path fill="#fff" style="fill: var(--color1, #fff)" d="M81.141 25.043l-5.454-15.026h3.353l3.784 10.894 3.77-10.894h3.367l-5.454 15.026h-3.367zM97.634 25.461c-1.521 0-2.857-0.329-4.007-0.988s-2.050-1.572-2.699-2.741c-0.64-1.169-0.96-2.514-0.96-4.035 0-1.642 0.315-3.065 0.946-4.271 0.631-1.215 1.507-2.157 2.63-2.824s2.421-1.002 3.896-1.002c1.558 0 2.88 0.366 3.965 1.099 1.094 0.723 1.906 1.748 2.435 3.075s0.728 2.889 0.598 4.689h-3.325v-1.224c-0.009-1.632-0.297-2.824-0.863-3.576s-1.456-1.127-2.671-1.127c-1.373 0-2.393 0.427-3.061 1.28-0.668 0.844-1.002 2.082-1.002 3.715 0 1.521 0.334 2.699 1.002 3.534s1.642 1.252 2.922 1.252c0.825 0 1.535-0.181 2.129-0.543 0.603-0.371 1.067-0.904 1.391-1.6l3.311 1.002c-0.575 1.354-1.466 2.407-2.671 3.158-1.197 0.751-2.518 1.127-3.965 1.127zM92.458 18.463v-2.532h10.337v2.532h-10.337z"></path>
</symbol>
<symbol id="icon-logo-mob-white-yellow" viewBox="0 0 109 32">
<path fill="#fff" style="fill: var(--color1, #fff)" d="M9.414 25.571c-1.505 0-2.767-0.357-3.786-1.071s-1.786-1.686-2.3-2.914c-0.514-1.238-0.771-2.624-0.771-4.157 0-1.552 0.257-2.943 0.771-4.171s1.267-2.195 2.257-2.9c1-0.714 2.233-1.071 3.7-1.071 1.457 0 2.719 0.357 3.786 1.071 1.076 0.705 1.91 1.671 2.5 2.9 0.59 1.219 0.886 2.61 0.886 4.171 0 1.543-0.29 2.929-0.871 4.157s-1.4 2.2-2.457 2.914c-1.057 0.714-2.295 1.071-3.714 1.071zM1.971 32v-22.286h3.043v10.829h0.429v11.457h-3.471zM8.886 22.486c0.895 0 1.633-0.224 2.214-0.671s1.010-1.052 1.286-1.814c0.286-0.771 0.429-1.629 0.429-2.571 0-0.933-0.143-1.781-0.429-2.543-0.286-0.771-0.729-1.381-1.329-1.829-0.6-0.457-1.362-0.686-2.286-0.686-0.876 0-1.59 0.214-2.143 0.643-0.552 0.419-0.962 1.010-1.229 1.771-0.257 0.752-0.386 1.633-0.386 2.643 0 1 0.129 1.881 0.386 2.643 0.267 0.762 0.681 1.357 1.243 1.786 0.571 0.419 1.319 0.629 2.243 0.629zM25.477 25.571c-1.562 0-2.933-0.338-4.114-1.014s-2.105-1.614-2.771-2.814c-0.657-1.2-0.986-2.581-0.986-4.143 0-1.686 0.324-3.148 0.971-4.386 0.648-1.248 1.548-2.214 2.7-2.9s2.486-1.029 4-1.029c1.6 0 2.957 0.376 4.071 1.129 1.124 0.743 1.957 1.795 2.5 3.157s0.748 2.967 0.614 4.814h-3.414v-1.257c-0.009-1.676-0.305-2.9-0.886-3.671s-1.495-1.157-2.743-1.157c-1.41 0-2.457 0.438-3.143 1.314-0.686 0.867-1.029 2.138-1.029 3.814 0 1.562 0.343 2.771 1.029 3.629s1.686 1.286 3 1.286c0.848 0 1.576-0.186 2.186-0.557 0.619-0.381 1.095-0.929 1.429-1.643l3.4 1.029c-0.59 1.39-1.505 2.471-2.743 3.243-1.229 0.771-2.586 1.157-4.071 1.157zM20.163 18.386v-2.6h10.614v2.6h-10.614zM43.551 25.143c-1.019 0.19-2.019 0.271-3 0.243-0.971-0.019-1.843-0.195-2.614-0.529-0.771-0.343-1.357-0.881-1.757-1.614-0.352-0.667-0.538-1.348-0.557-2.043s-0.029-1.481-0.029-2.357v-13.414h3.429v13.214c0 0.619 0.005 1.162 0.014 1.629 0.019 0.467 0.119 0.848 0.3 1.143 0.343 0.571 0.89 0.89 1.643 0.957s1.609 0.029 2.571-0.114v2.886zM32.794 12.414v-2.7h10.757v2.7h-10.757zM46.011 25.143v-21h3.443v21h-3.443z"></path>
<path fill="#f6b83d" style="fill: var(--color2, #f6b83d)" d="M64.565 9.369c-2.011-2.374-5.363-3.013-7.883-0.839s-2.874 5.809-0.896 8.38c1.267 1.647 4.512 4.701 6.682 6.684 0.721 0.659 1.082 0.988 1.514 1.121 0.371 0.114 0.795 0.114 1.166 0 0.432-0.132 0.793-0.462 1.513-1.121 2.17-1.983 5.415-5.037 6.682-6.684 1.979-2.571 1.667-6.229-0.895-8.38s-5.873-1.535-7.883 0.839z"></path>
<path fill="#fff" style="fill: var(--color1, #fff)" d="M83.314 25.143l-5.6-15.429h3.443l3.886 11.186 3.871-11.186h3.457l-5.6 15.429h-3.457zM100.249 25.571c-1.562 0-2.933-0.338-4.114-1.014s-2.105-1.614-2.771-2.814c-0.657-1.2-0.986-2.581-0.986-4.143 0-1.686 0.324-3.148 0.971-4.386 0.647-1.248 1.547-2.214 2.7-2.9s2.486-1.029 4-1.029c1.6 0 2.957 0.376 4.071 1.129 1.124 0.743 1.957 1.795 2.5 3.157s0.747 2.967 0.614 4.814h-3.414v-1.257c-0.010-1.676-0.305-2.9-0.886-3.671s-1.495-1.157-2.743-1.157c-1.41 0-2.457 0.438-3.143 1.314-0.686 0.867-1.029 2.138-1.029 3.814 0 1.562 0.343 2.771 1.029 3.629s1.686 1.286 3 1.286c0.847 0 1.576-0.186 2.186-0.557 0.619-0.381 1.095-0.929 1.429-1.643l3.4 1.029c-0.59 1.39-1.505 2.471-2.743 3.243-1.229 0.771-2.586 1.157-4.071 1.157zM94.934 18.386v-2.6h10.614v2.6h-10.614z"></path>
</symbol>
<symbol id="icon-male-blue" viewBox="0 0 32 32">
<path fill="none" stroke="#54adff" style="stroke: var(--color6, #54adff)" stroke-linejoin="round" stroke-linecap="round" stroke-miterlimit="4" stroke-width="2" d="M16 14.667c-3.682 0-6.667 2.985-6.667 6.667s2.985 6.667 6.667 6.667c3.682 0 6.667-2.985 6.667-6.667s-2.985-6.667-6.667-6.667zM16 14.667v-10.667M16 4l5.333 5.333M16 4l-5.333 5.333"></path>
</symbol>
<symbol id="icon-male-white" viewBox="0 0 32 32">
<path fill="none" stroke="#fff" style="stroke: var(--color4, #fff)" stroke-linejoin="round" stroke-linecap="round" stroke-miterlimit="4" stroke-width="2" d="M16 14.667c-3.682 0-6.667 2.985-6.667 6.667s2.985 6.667 6.667 6.667c3.682 0 6.667-2.985 6.667-6.667s-2.985-6.667-6.667-6.667zM16 14.667v-10.667M16 4l5.333 5.333M16 4l-5.333 5.333"></path>
</symbol>
<symbol id="icon-mob-menu" viewBox="0 0 32 32">
<path stroke-linejoin="round" stroke-linecap="round" stroke-miterlimit="4" stroke-width="3" d="M4 16h24"></path>
<path stroke-linejoin="round" stroke-linecap="round" stroke-miterlimit="4" stroke-width="3" d="M4 8h24"></path>
<path stroke-linejoin="round" stroke-linecap="round" stroke-miterlimit="4" stroke-width="3" d="M4 24h24"></path>
</symbol>
<symbol id="icon-mob-menu-white" viewBox="0 0 32 32">
<path fill="none" stroke="#fff" style="stroke: var(--color4, #fff)" stroke-linejoin="round" stroke-linecap="round" stroke-miterlimit="4" stroke-width="2.6667" d="M4 16h24"></path>
<path fill="none" stroke="#fff" style="stroke: var(--color4, #fff)" stroke-linejoin="round" stroke-linecap="round" stroke-miterlimit="4" stroke-width="2.6667" d="M4 8h24"></path>
<path fill="none" stroke="#fff" style="stroke: var(--color4, #fff)" stroke-linejoin="round" stroke-linecap="round" stroke-miterlimit="4" stroke-width="2.6667" d="M4 24h24"></path>
</symbol>
<symbol id="icon-plus-white" viewBox="0 0 32 32">
<path fill="none" stroke="#fff" style="stroke: var(--color4, #fff)" stroke-linejoin="round" stroke-linecap="round" stroke-miterlimit="4" stroke-width="2.6667" d="M16 6.667v18.667"></path>
<path fill="none" stroke="#fff" style="stroke: var(--color4, #fff)" stroke-linejoin="round" stroke-linecap="round" stroke-miterlimit="4" stroke-width="2.6667" d="M6.667 16h18.667"></path>
</symbol>
<symbol id="icon-star" viewBox="0 0 32 32">
<path fill="#ffc531" style="fill: var(--color7, #ffc531); stroke: var(--color7, #ffc531)" stroke="#ffc531" stroke-linejoin="miter" stroke-linecap="butt" stroke-miterlimit="4" stroke-width="2.4" d="M12.4 9.394l3.6-6.822 3.6 6.822c0.318 0.603 0.899 1.025 1.571 1.141l7.601 1.315-5.376 5.532c-0.475 0.489-0.697 1.171-0.6 1.846l1.098 7.635-6.922-3.404c-0.612-0.301-1.329-0.301-1.941 0l-6.922 3.404 1.098-7.635c0.097-0.675-0.125-1.357-0.6-1.846l-5.376-5.532 7.601-1.315c0.672-0.116 1.252-0.538 1.571-1.141zM29.035 11.579v0zM7.767 27.031c0 0 0 0 0 0h-0z"></path>
</symbol>
<symbol id="icon-three-points-svg" viewBox="0 0 32 32">
<path d="M1.646 18.286v-4.48h4.48v4.48h-4.48zM13.967 18.286v-4.48h4.48v4.48h-4.48zM26.289 18.286v-4.48h4.48v4.48h-4.48z"></path>
</symbol>
<symbol id="icon-trash-yellow" viewBox="0 0 32 32">
<path fill="none" stroke="#f6b83d" style="stroke: var(--color2, #f6b83d)" stroke-linejoin="round" stroke-linecap="round" stroke-miterlimit="4" stroke-width="2.6667" d="M4 8h24"></path>
<path fill="none" stroke="#f6b83d" style="stroke: var(--color2, #f6b83d)" stroke-linejoin="round" stroke-linecap="round" stroke-miterlimit="4" stroke-width="2.6667" d="M25.333 8v18.667c0 0.707-0.281 1.386-0.781 1.886s-1.178 0.781-1.886 0.781h-13.333c-0.707 0-1.386-0.281-1.886-0.781s-0.781-1.178-0.781-1.886v-18.667M10.667 8v-2.667c0-0.707 0.281-1.386 0.781-1.886s1.178-0.781 1.886-0.781h5.333c0.707 0 1.386 0.281 1.886 0.781s0.781 1.178 0.781 1.886v2.667"></path>
<path fill="none" stroke="#f6b83d" style="stroke: var(--color2, #f6b83d)" stroke-linejoin="round" stroke-linecap="round" stroke-miterlimit="4" stroke-width="2.6667" d="M13.333 14.667v8"></path>
<path fill="none" stroke="#f6b83d" style="stroke: var(--color2, #f6b83d)" stroke-linejoin="round" stroke-linecap="round" stroke-miterlimit="4" stroke-width="2.6667" d="M18.667 14.667v8"></path>
</symbol>
<symbol id="icon-user-02-white" viewBox="0 0 32 32">
<path fill="#fff" style="fill: var(--color4, #fff); stroke: var(--color4, #fff)" stroke="#fff" stroke-linejoin="round" stroke-linecap="round" stroke-miterlimit="4" stroke-width="3.5556" d="M16.001 20c-4.227 0-7.986 2.041-10.379 5.208-0.515 0.682-0.773 1.022-0.764 1.483 0.007 0.356 0.23 0.805 0.51 1.025 0.362 0.284 0.865 0.284 1.869 0.284h17.527c1.004 0 1.507 0 1.869-0.284 0.28-0.22 0.503-0.669 0.51-1.025 0.009-0.461-0.249-0.801-0.764-1.483-2.393-3.167-6.152-5.208-10.379-5.208z"></path>
<path fill="#fff" style="fill: var(--color4, #fff); stroke: var(--color4, #fff)" stroke="#fff" stroke-linejoin="round" stroke-linecap="round" stroke-miterlimit="4" stroke-width="3.5556" d="M16 16c3.314 0 6-2.686 6-6s-2.686-6-6-6c-3.314 0-6 2.686-6 6s2.686 6 6 6z"></path>
</symbol>
<symbol id="icon-user-02-yellow" viewBox="0 0 32 32">
<path fill="#f6b83d" style="fill: var(--color2, #f6b83d); stroke: var(--color2, #f6b83d)" stroke="#f6b83d" stroke-linejoin="round" stroke-linecap="round" stroke-miterlimit="4" stroke-width="2.6667" d="M16 20c-4.227 0-7.986 2.041-10.379 5.208-0.515 0.682-0.773 1.022-0.764 1.483 0.006 0.356 0.23 0.805 0.51 1.025 0.362 0.284 0.865 0.284 1.869 0.284h17.527c1.005 0 1.507 0 1.869-0.284 0.28-0.22 0.503-0.669 0.51-1.025 0.008-0.461-0.249-0.801-0.764-1.483-2.393-3.167-6.152-5.208-10.379-5.208z"></path>
<path fill="#f6b83d" style="fill: var(--color2, #f6b83d); stroke: var(--color2, #f6b83d)" stroke="#f6b83d" stroke-linejoin="round" stroke-linecap="round" stroke-miterlimit="4" stroke-width="2.6667" d="M16 16c3.314 0 6-2.686 6-6s-2.686-6-6-6c-3.314 0-6 2.686-6 6s2.686 6 6 6z"></path>
</symbol>
<symbol id="icon-user-yellov" viewBox="0 0 32 32">
<path fill="#fff4df" style="fill: var(--color1, #fff4df)" d="M32 16c0 8.837-7.163 16-16 16s-16-7.163-16-16c0-8.837 7.163-16 16-16s16 7.163 16 16z"></path>
<symbol id="icon-user" viewBox="0 0 32 32">
<path fill="#fff4df" style="fill: var(--color1, #fff4df)" d="M32 16c0 8.837-7.163 16-16 16s-16-7.163-16-16c0-8.837 7.163-16 16-16s16 7.163 16 16z"></path>
<path fill="#f6b83d" style="fill: var(--color2, #f6b83d); stroke: var(--color2, #f6b83d)" stroke="#f6b83d" stroke-linejoin="round" stroke-linecap="round" stroke-miterlimit="4" stroke-width="1.6" d="M16 18c-2.113 0-3.993 1.020-5.189 2.604-0.258 0.341-0.386 0.511-0.382 0.742 0.003 0.178 0.115 0.402 0.255 0.512 0.181 0.142 0.432 0.142 0.935 0.142h8.764c0.502 0 0.753 0 0.935-0.142 0.14-0.11 0.252-0.334 0.255-0.512 0.004-0.23-0.125-0.401-0.382-0.742-1.196-1.584-3.076-2.604-5.189-2.604z"></path>
<path fill="#f6b83d" style="fill: var(--color2, #f6b83d); stroke: var(--color2, #f6b83d)" stroke="#f6b83d" stroke-linejoin="round" stroke-linecap="round" stroke-miterlimit="4" stroke-width="1.6" d="M16 16c1.657 0 3-1.343 3-3s-1.343-3-3-3c-1.657 0-3 1.343-3 3s1.343 3 3 3z"></path>
</symbol>
<path fill="#f6b83d" style="fill: var(--color2, #f6b83d); stroke: var(--color2, #f6b83d)" stroke="#f6b83d" stroke-linejoin="round" stroke-linecap="round" stroke-miterlimit="4" stroke-width="1.6" d="M16 18c-2.113 0-3.993 1.020-5.189 2.604-0.258 0.341-0.386 0.511-0.382 0.742 0.003 0.178 0.115 0.402 0.255 0.512 0.181 0.142 0.432 0.142 0.935 0.142h8.764c0.502 0 0.753 0 0.935-0.142 0.14-0.11 0.252-0.334 0.255-0.512 0.004-0.23-0.125-0.401-0.382-0.742-1.196-1.584-3.076-2.604-5.189-2.604z"></path>
<path fill="#f6b83d" style="fill: var(--color2, #f6b83d); stroke: var(--color2, #f6b83d)" stroke="#f6b83d" stroke-linejoin="round" stroke-linecap="round" stroke-miterlimit="4" stroke-width="1.6" d="M16 16c1.657 0 3-1.343 3-3s-1.343-3-3-3c-1.657 0-3 1.343-3 3s1.343 3 3 3z"></path>
</symbol>
<symbol id="icon-x-black" viewBox="0 0 32 32">
<path stroke-linejoin="round" stroke-linecap="round" stroke-miterlimit="4" stroke-width="3" d="M24 8l-16 16"></path>
<path stroke-linejoin="round" stroke-linecap="round" stroke-miterlimit="4" stroke-width="3" d="M8 8l16 16"></path>
</symbol>
<symbol id="icon-x-white" viewBox="0 0 32 32">
<path fill="none" stroke="#fff" style="stroke: var(--color4, #fff)" stroke-linejoin="round" stroke-linecap="round" stroke-miterlimit="4" stroke-width="3" d="M24 8l-16 16"></path>
<path fill="none" stroke="#fff" style="stroke: var(--color4, #fff)" stroke-linejoin="round" stroke-linecap="round" stroke-miterlimit="4" stroke-width="3" d="M8 8l16 16"></path>
</symbol>
<symbol id="icon-truck" viewBox="0 0 32 32">
<path d="M32 18l-4-8h-6v-4c0-1.1-0.9-2-2-2h-18c-1.1 0-2 0.9-2 2v16l2 2h2.536c-0.341 0.588-0.536 1.271-0.536 2 0 2.209 1.791 4 4 4s4-1.791 4-4c0-0.729-0.196-1.412-0.536-2h11.073c-0.341 0.588-0.537 1.271-0.537 2 0 2.209 1.791 4 4 4s4-1.791 4-4c0-0.729-0.196-1.412-0.537-2h2.537v-6zM22 18v-6h4.146l3 6h-7.146z"></path>
</symbol>
</defs>
</svg>
